G04 EAGLE Gerber RS-274X export*
G75*
%MOMM*%
%FSLAX34Y34*%
%LPD*%
%INCopper Layer 15*%
%IPPOS*%
%AMOC8*
5,1,8,0,0,1.08239X$1,22.5*%
G01*
%ADD10C,1.540000*%
%ADD11C,1.288000*%
%ADD12C,3.220000*%
%ADD13C,1.400000*%
%ADD14C,1.848000*%
%ADD15C,1.244600*%
%ADD16C,1.054800*%
%ADD17C,4.191000*%
%ADD18C,0.609600*%

G36*
X695018Y2544D02*
X695018Y2544D01*
X695037Y2542D01*
X695139Y2564D01*
X695241Y2580D01*
X695258Y2590D01*
X695278Y2594D01*
X695367Y2647D01*
X695458Y2696D01*
X695472Y2710D01*
X695489Y2720D01*
X695556Y2799D01*
X695628Y2874D01*
X695636Y2892D01*
X695649Y2907D01*
X695688Y3003D01*
X695731Y3097D01*
X695733Y3117D01*
X695741Y3135D01*
X695759Y3302D01*
X695759Y526798D01*
X695756Y526818D01*
X695758Y526837D01*
X695736Y526939D01*
X695720Y527041D01*
X695710Y527058D01*
X695706Y527078D01*
X695653Y527167D01*
X695604Y527258D01*
X695590Y527272D01*
X695580Y527289D01*
X695501Y527356D01*
X695426Y527428D01*
X695408Y527436D01*
X695393Y527449D01*
X695297Y527488D01*
X695203Y527531D01*
X695183Y527533D01*
X695165Y527541D01*
X694998Y527559D01*
X3302Y527559D01*
X3282Y527556D01*
X3263Y527558D01*
X3161Y527536D01*
X3059Y527520D01*
X3042Y527510D01*
X3022Y527506D01*
X2933Y527453D01*
X2842Y527404D01*
X2828Y527390D01*
X2811Y527380D01*
X2744Y527301D01*
X2672Y527226D01*
X2664Y527208D01*
X2651Y527193D01*
X2612Y527097D01*
X2569Y527003D01*
X2567Y526983D01*
X2559Y526965D01*
X2541Y526798D01*
X2541Y3302D01*
X2544Y3282D01*
X2542Y3263D01*
X2564Y3161D01*
X2580Y3059D01*
X2590Y3042D01*
X2594Y3022D01*
X2647Y2933D01*
X2696Y2842D01*
X2710Y2828D01*
X2720Y2811D01*
X2799Y2744D01*
X2874Y2672D01*
X2892Y2664D01*
X2907Y2651D01*
X3003Y2612D01*
X3097Y2569D01*
X3117Y2567D01*
X3135Y2559D01*
X3302Y2541D01*
X694998Y2541D01*
X695018Y2544D01*
G37*
%LPC*%
G36*
X387042Y201929D02*
X387042Y201929D01*
X384809Y204162D01*
X384809Y265738D01*
X420146Y301076D01*
X420199Y301149D01*
X420259Y301219D01*
X420271Y301249D01*
X420290Y301275D01*
X420317Y301362D01*
X420351Y301447D01*
X420355Y301488D01*
X420362Y301510D01*
X420361Y301543D01*
X420369Y301614D01*
X420369Y303975D01*
X420354Y304071D01*
X420344Y304168D01*
X420334Y304191D01*
X420330Y304217D01*
X420284Y304303D01*
X420244Y304392D01*
X420227Y304412D01*
X420214Y304435D01*
X420144Y304502D01*
X420078Y304573D01*
X420055Y304586D01*
X420036Y304604D01*
X419948Y304645D01*
X419862Y304692D01*
X419837Y304697D01*
X419813Y304708D01*
X419716Y304718D01*
X419620Y304736D01*
X419594Y304732D01*
X419569Y304735D01*
X419473Y304714D01*
X419377Y304700D01*
X419354Y304688D01*
X419328Y304682D01*
X419245Y304633D01*
X419158Y304588D01*
X419139Y304570D01*
X419117Y304556D01*
X419054Y304482D01*
X418986Y304413D01*
X418970Y304384D01*
X418957Y304369D01*
X418945Y304339D01*
X418905Y304266D01*
X418230Y302636D01*
X415764Y300170D01*
X412543Y298836D01*
X409057Y298836D01*
X405836Y300170D01*
X403370Y302636D01*
X402036Y305857D01*
X402036Y309343D01*
X403370Y312564D01*
X405836Y315030D01*
X409057Y316364D01*
X412543Y316364D01*
X415764Y315030D01*
X418230Y312564D01*
X418905Y310934D01*
X418956Y310851D01*
X419002Y310765D01*
X419020Y310747D01*
X419034Y310725D01*
X419110Y310663D01*
X419180Y310596D01*
X419204Y310585D01*
X419224Y310568D01*
X419315Y310533D01*
X419403Y310492D01*
X419429Y310489D01*
X419453Y310480D01*
X419551Y310476D01*
X419647Y310465D01*
X419673Y310471D01*
X419699Y310470D01*
X419793Y310497D01*
X419888Y310518D01*
X419910Y310531D01*
X419935Y310538D01*
X420015Y310594D01*
X420099Y310644D01*
X420116Y310664D01*
X420137Y310678D01*
X420196Y310757D01*
X420259Y310831D01*
X420269Y310855D01*
X420284Y310876D01*
X420314Y310968D01*
X420351Y311059D01*
X420354Y311091D01*
X420360Y311110D01*
X420360Y311143D01*
X420369Y311225D01*
X420369Y329375D01*
X420354Y329471D01*
X420344Y329568D01*
X420334Y329591D01*
X420330Y329617D01*
X420284Y329703D01*
X420244Y329792D01*
X420227Y329812D01*
X420214Y329835D01*
X420144Y329902D01*
X420078Y329973D01*
X420055Y329986D01*
X420036Y330004D01*
X419948Y330045D01*
X419862Y330092D01*
X419837Y330097D01*
X419813Y330108D01*
X419716Y330118D01*
X419620Y330136D01*
X419594Y330132D01*
X419569Y330135D01*
X419473Y330114D01*
X419377Y330100D01*
X419354Y330088D01*
X419328Y330082D01*
X419245Y330033D01*
X419158Y329988D01*
X419139Y329970D01*
X419117Y329956D01*
X419054Y329882D01*
X418986Y329813D01*
X418970Y329784D01*
X418957Y329769D01*
X418945Y329739D01*
X418905Y329666D01*
X418230Y328036D01*
X415764Y325570D01*
X412543Y324236D01*
X409057Y324236D01*
X405836Y325570D01*
X403370Y328036D01*
X402036Y331257D01*
X402036Y334743D01*
X403370Y337964D01*
X405836Y340430D01*
X409057Y341764D01*
X412543Y341764D01*
X412940Y341599D01*
X413035Y341577D01*
X413128Y341548D01*
X413154Y341549D01*
X413180Y341543D01*
X413277Y341552D01*
X413374Y341555D01*
X413399Y341564D01*
X413425Y341566D01*
X413514Y341606D01*
X413605Y341639D01*
X413626Y341655D01*
X413650Y341666D01*
X413721Y341732D01*
X413797Y341793D01*
X413811Y341815D01*
X413831Y341833D01*
X413877Y341918D01*
X413930Y342000D01*
X413937Y342025D01*
X413949Y342048D01*
X413967Y342144D01*
X413990Y342238D01*
X413988Y342264D01*
X413993Y342290D01*
X413979Y342387D01*
X413971Y342483D01*
X413961Y342508D01*
X413957Y342533D01*
X413913Y342620D01*
X413875Y342710D01*
X413854Y342735D01*
X413846Y342753D01*
X413822Y342776D01*
X413770Y342841D01*
X412749Y343862D01*
X412749Y385304D01*
X412742Y385350D01*
X412744Y385395D01*
X412722Y385470D01*
X412710Y385547D01*
X412688Y385588D01*
X412675Y385632D01*
X412631Y385696D01*
X412594Y385764D01*
X412561Y385796D01*
X412535Y385834D01*
X412473Y385880D01*
X412416Y385934D01*
X412374Y385953D01*
X412338Y385981D01*
X412264Y386005D01*
X412193Y386037D01*
X412147Y386043D01*
X412104Y386057D01*
X412026Y386056D01*
X411949Y386065D01*
X411904Y386055D01*
X411858Y386054D01*
X411726Y386016D01*
X411708Y386012D01*
X411704Y386010D01*
X411697Y386008D01*
X408586Y384719D01*
X405014Y384719D01*
X401713Y386087D01*
X399187Y388613D01*
X397819Y391914D01*
X397819Y395486D01*
X399187Y398787D01*
X401713Y401313D01*
X405014Y402681D01*
X408586Y402681D01*
X411697Y401392D01*
X411741Y401382D01*
X411783Y401363D01*
X411860Y401354D01*
X411936Y401336D01*
X411982Y401341D01*
X412027Y401335D01*
X412104Y401352D01*
X412181Y401359D01*
X412223Y401378D01*
X412268Y401388D01*
X412335Y401428D01*
X412406Y401459D01*
X412440Y401490D01*
X412479Y401514D01*
X412530Y401573D01*
X412587Y401626D01*
X412609Y401666D01*
X412639Y401701D01*
X412668Y401773D01*
X412705Y401841D01*
X412714Y401886D01*
X412731Y401929D01*
X412746Y402065D01*
X412749Y402083D01*
X412748Y402088D01*
X412749Y402096D01*
X412749Y407978D01*
X414982Y410211D01*
X445570Y410211D01*
X445616Y410218D01*
X445662Y410216D01*
X445736Y410238D01*
X445813Y410250D01*
X445854Y410272D01*
X445898Y410285D01*
X445962Y410329D01*
X446030Y410366D01*
X446062Y410399D01*
X446100Y410425D01*
X446146Y410488D01*
X446200Y410544D01*
X446219Y410586D01*
X446247Y410622D01*
X446271Y410696D01*
X446303Y410767D01*
X446309Y410813D01*
X446323Y410856D01*
X446322Y410934D01*
X446331Y411011D01*
X446321Y411056D01*
X446320Y411102D01*
X446282Y411234D01*
X446278Y411252D01*
X446276Y411256D01*
X446274Y411263D01*
X443859Y417092D01*
X443859Y424508D01*
X446697Y431359D01*
X451941Y436603D01*
X458792Y439441D01*
X466208Y439441D01*
X473059Y436603D01*
X478303Y431359D01*
X481141Y424508D01*
X481141Y417092D01*
X478303Y410241D01*
X473059Y404997D01*
X466208Y402159D01*
X458792Y402159D01*
X454369Y403991D01*
X454274Y404014D01*
X454181Y404042D01*
X454155Y404042D01*
X454129Y404048D01*
X454033Y404038D01*
X453935Y404036D01*
X453911Y404027D01*
X453885Y404024D01*
X453796Y403985D01*
X453704Y403951D01*
X453684Y403935D01*
X453660Y403924D01*
X453588Y403859D01*
X453512Y403798D01*
X453498Y403776D01*
X453479Y403758D01*
X453432Y403673D01*
X453379Y403591D01*
X453373Y403566D01*
X453360Y403543D01*
X453343Y403447D01*
X453319Y403352D01*
X453321Y403326D01*
X453316Y403301D01*
X453331Y403204D01*
X453338Y403107D01*
X453348Y403083D01*
X453352Y403057D01*
X453397Y402970D01*
X453435Y402881D01*
X453455Y402855D01*
X453464Y402838D01*
X453487Y402815D01*
X453539Y402750D01*
X461096Y395194D01*
X461169Y395141D01*
X461239Y395081D01*
X461269Y395069D01*
X461295Y395050D01*
X461382Y395023D01*
X461467Y394989D01*
X461508Y394985D01*
X461530Y394978D01*
X461563Y394979D01*
X461634Y394971D01*
X496878Y394971D01*
X529676Y362174D01*
X529749Y362121D01*
X529819Y362061D01*
X529849Y362049D01*
X529875Y362030D01*
X529962Y362003D01*
X530047Y361969D01*
X530088Y361965D01*
X530110Y361958D01*
X530143Y361959D01*
X530214Y361951D01*
X590858Y361951D01*
X593091Y359718D01*
X593091Y310842D01*
X572856Y290606D01*
X572855Y290606D01*
X539776Y257527D01*
X539720Y257448D01*
X539657Y257373D01*
X539648Y257349D01*
X539633Y257327D01*
X539604Y257234D01*
X539569Y257144D01*
X539568Y257117D01*
X539560Y257092D01*
X539563Y256995D01*
X539559Y256898D01*
X539566Y256873D01*
X539567Y256846D01*
X539600Y256755D01*
X539627Y256662D01*
X539642Y256640D01*
X539651Y256615D01*
X539712Y256539D01*
X539768Y256459D01*
X539789Y256444D01*
X539805Y256423D01*
X539887Y256371D01*
X539965Y256313D01*
X539990Y256305D01*
X540012Y256290D01*
X540106Y256267D01*
X540199Y256237D01*
X540225Y256237D01*
X540250Y256230D01*
X540347Y256238D01*
X540445Y256239D01*
X540476Y256248D01*
X540496Y256250D01*
X540526Y256262D01*
X540606Y256286D01*
X542448Y257049D01*
X544672Y257049D01*
X546726Y256198D01*
X548298Y254626D01*
X549149Y252572D01*
X549149Y250348D01*
X548298Y248294D01*
X546726Y246722D01*
X544672Y245871D01*
X542448Y245871D01*
X540394Y246722D01*
X538822Y248294D01*
X537971Y250348D01*
X537971Y252572D01*
X538734Y254414D01*
X538757Y254509D01*
X538785Y254602D01*
X538785Y254628D01*
X538791Y254653D01*
X538781Y254750D01*
X538779Y254848D01*
X538770Y254872D01*
X538767Y254898D01*
X538728Y254987D01*
X538694Y255079D01*
X538678Y255099D01*
X538667Y255123D01*
X538602Y255195D01*
X538541Y255271D01*
X538519Y255285D01*
X538501Y255304D01*
X538416Y255351D01*
X538334Y255404D01*
X538308Y255410D01*
X538286Y255423D01*
X538190Y255440D01*
X538095Y255464D01*
X538069Y255462D01*
X538043Y255466D01*
X537947Y255452D01*
X537850Y255445D01*
X537826Y255435D01*
X537800Y255431D01*
X537713Y255386D01*
X537624Y255348D01*
X537598Y255328D01*
X537581Y255319D01*
X537558Y255296D01*
X537493Y255244D01*
X532354Y250105D01*
X532301Y250031D01*
X532241Y249961D01*
X532229Y249931D01*
X532210Y249905D01*
X532183Y249818D01*
X532149Y249733D01*
X532145Y249692D01*
X532138Y249670D01*
X532139Y249638D01*
X532131Y249566D01*
X532131Y234243D01*
X532146Y234147D01*
X532156Y234050D01*
X532166Y234026D01*
X532170Y234000D01*
X532216Y233914D01*
X532256Y233825D01*
X532273Y233806D01*
X532286Y233782D01*
X532356Y233716D01*
X532422Y233644D01*
X532445Y233631D01*
X532464Y233613D01*
X532552Y233572D01*
X532638Y233525D01*
X532663Y233520D01*
X532687Y233509D01*
X532784Y233499D01*
X532880Y233481D01*
X532906Y233485D01*
X532931Y233482D01*
X533026Y233503D01*
X533123Y233517D01*
X533146Y233529D01*
X533172Y233535D01*
X533255Y233585D01*
X533342Y233629D01*
X533361Y233647D01*
X533383Y233661D01*
X533446Y233735D01*
X533514Y233804D01*
X533530Y233833D01*
X533543Y233848D01*
X533555Y233879D01*
X533595Y233951D01*
X533742Y234306D01*
X535314Y235878D01*
X537368Y236729D01*
X539592Y236729D01*
X541646Y235878D01*
X543218Y234306D01*
X544069Y232252D01*
X544069Y230028D01*
X543218Y227974D01*
X541646Y226402D01*
X539592Y225551D01*
X537368Y225551D01*
X535314Y226402D01*
X533742Y227974D01*
X533241Y229183D01*
X533217Y229223D01*
X533201Y229266D01*
X533153Y229326D01*
X533112Y229393D01*
X533076Y229422D01*
X533048Y229458D01*
X532982Y229500D01*
X532922Y229549D01*
X532879Y229566D01*
X532841Y229591D01*
X532765Y229610D01*
X532693Y229638D01*
X532647Y229639D01*
X532602Y229651D01*
X532525Y229645D01*
X532447Y229648D01*
X532403Y229635D01*
X532357Y229632D01*
X532285Y229601D01*
X532211Y229579D01*
X532173Y229553D01*
X532131Y229535D01*
X532024Y229450D01*
X532008Y229439D01*
X532005Y229435D01*
X532000Y229430D01*
X529814Y227244D01*
X527358Y224789D01*
X479414Y224789D01*
X479324Y224775D01*
X479233Y224767D01*
X479203Y224755D01*
X479171Y224750D01*
X479090Y224707D01*
X479006Y224671D01*
X478974Y224645D01*
X478954Y224634D01*
X478931Y224611D01*
X478876Y224566D01*
X456238Y201929D01*
X387042Y201929D01*
G37*
%LPD*%
G36*
X454758Y204483D02*
X454758Y204483D01*
X454857Y204486D01*
X454915Y204503D01*
X454976Y204511D01*
X455068Y204547D01*
X455163Y204575D01*
X455215Y204605D01*
X455271Y204628D01*
X455351Y204686D01*
X455437Y204736D01*
X455512Y204802D01*
X455529Y204814D01*
X455536Y204824D01*
X455558Y204843D01*
X478046Y227331D01*
X525780Y227331D01*
X525878Y227343D01*
X525977Y227346D01*
X526035Y227363D01*
X526096Y227371D01*
X526188Y227407D01*
X526283Y227435D01*
X526335Y227465D01*
X526391Y227488D01*
X526471Y227546D01*
X526557Y227596D01*
X526632Y227662D01*
X526649Y227674D01*
X526656Y227684D01*
X526678Y227703D01*
X529218Y230243D01*
X529278Y230321D01*
X529346Y230393D01*
X529371Y230438D01*
X529376Y230444D01*
X529380Y230452D01*
X529412Y230494D01*
X529452Y230585D01*
X529500Y230671D01*
X529515Y230730D01*
X529539Y230786D01*
X529554Y230884D01*
X529579Y230979D01*
X529585Y231079D01*
X529589Y231100D01*
X529587Y231112D01*
X529589Y231140D01*
X529589Y250934D01*
X590178Y311523D01*
X590238Y311601D01*
X590306Y311673D01*
X590335Y311726D01*
X590372Y311774D01*
X590412Y311865D01*
X590460Y311951D01*
X590475Y312010D01*
X590499Y312066D01*
X590514Y312164D01*
X590539Y312259D01*
X590545Y312359D01*
X590549Y312380D01*
X590547Y312392D01*
X590549Y312420D01*
X590549Y358140D01*
X590534Y358258D01*
X590527Y358377D01*
X590514Y358415D01*
X590509Y358456D01*
X590466Y358566D01*
X590429Y358679D01*
X590407Y358714D01*
X590392Y358751D01*
X590323Y358847D01*
X590259Y358948D01*
X590229Y358976D01*
X590206Y359009D01*
X590114Y359085D01*
X590027Y359166D01*
X589992Y359186D01*
X589961Y359211D01*
X589853Y359262D01*
X589749Y359320D01*
X589709Y359330D01*
X589673Y359347D01*
X589556Y359369D01*
X589441Y359399D01*
X589381Y359403D01*
X589361Y359407D01*
X589340Y359405D01*
X589280Y359409D01*
X528846Y359409D01*
X496198Y392058D01*
X496119Y392118D01*
X496047Y392186D01*
X495994Y392215D01*
X495946Y392252D01*
X495855Y392292D01*
X495769Y392340D01*
X495710Y392355D01*
X495654Y392379D01*
X495556Y392394D01*
X495461Y392419D01*
X495361Y392425D01*
X495340Y392429D01*
X495328Y392427D01*
X495300Y392429D01*
X460266Y392429D01*
X445398Y407298D01*
X445319Y407358D01*
X445247Y407426D01*
X445194Y407455D01*
X445146Y407492D01*
X445055Y407532D01*
X444969Y407580D01*
X444910Y407595D01*
X444854Y407619D01*
X444756Y407634D01*
X444661Y407659D01*
X444561Y407665D01*
X444540Y407669D01*
X444528Y407667D01*
X444500Y407669D01*
X416560Y407669D01*
X416442Y407654D01*
X416323Y407647D01*
X416285Y407634D01*
X416244Y407629D01*
X416134Y407586D01*
X416021Y407549D01*
X415986Y407527D01*
X415949Y407512D01*
X415853Y407443D01*
X415752Y407379D01*
X415724Y407349D01*
X415691Y407326D01*
X415616Y407234D01*
X415534Y407147D01*
X415514Y407112D01*
X415489Y407081D01*
X415438Y406973D01*
X415380Y406869D01*
X415370Y406829D01*
X415353Y406793D01*
X415331Y406676D01*
X415301Y406561D01*
X415297Y406501D01*
X415293Y406481D01*
X415295Y406460D01*
X415291Y406400D01*
X415291Y396922D01*
X415292Y396913D01*
X415291Y396903D01*
X415312Y396755D01*
X415331Y396606D01*
X415334Y396598D01*
X415335Y396588D01*
X415387Y396436D01*
X415781Y395486D01*
X415781Y391914D01*
X415387Y390964D01*
X415385Y390955D01*
X415380Y390947D01*
X415343Y390802D01*
X415303Y390657D01*
X415303Y390648D01*
X415301Y390639D01*
X415291Y390478D01*
X415291Y345440D01*
X415303Y345342D01*
X415306Y345243D01*
X415323Y345185D01*
X415331Y345124D01*
X415367Y345032D01*
X415395Y344937D01*
X415425Y344885D01*
X415448Y344829D01*
X415506Y344749D01*
X415556Y344663D01*
X415622Y344588D01*
X415634Y344571D01*
X415644Y344564D01*
X415663Y344543D01*
X422911Y337294D01*
X422911Y300246D01*
X387723Y265058D01*
X387662Y264979D01*
X387594Y264907D01*
X387565Y264854D01*
X387528Y264806D01*
X387488Y264715D01*
X387440Y264629D01*
X387425Y264570D01*
X387401Y264514D01*
X387386Y264416D01*
X387361Y264321D01*
X387355Y264221D01*
X387351Y264200D01*
X387353Y264188D01*
X387351Y264160D01*
X387351Y263699D01*
X387368Y263561D01*
X387381Y263422D01*
X387388Y263403D01*
X387391Y263383D01*
X387442Y263254D01*
X387489Y263123D01*
X387500Y263106D01*
X387508Y263087D01*
X387589Y262975D01*
X387667Y262860D01*
X387683Y262846D01*
X387694Y262830D01*
X387802Y262741D01*
X387906Y262649D01*
X387924Y262640D01*
X387939Y262627D01*
X388065Y262568D01*
X388189Y262505D01*
X388209Y262500D01*
X388227Y262492D01*
X388364Y262466D01*
X388499Y262435D01*
X388520Y262436D01*
X388540Y262432D01*
X388678Y262441D01*
X388817Y262445D01*
X388837Y262450D01*
X388857Y262452D01*
X388989Y262494D01*
X389123Y262533D01*
X389140Y262544D01*
X389159Y262550D01*
X389277Y262624D01*
X389397Y262695D01*
X389418Y262713D01*
X389428Y262720D01*
X389442Y262735D01*
X389518Y262801D01*
X390534Y263818D01*
X392588Y264669D01*
X394812Y264669D01*
X396866Y263818D01*
X398438Y262246D01*
X399289Y260192D01*
X399289Y257968D01*
X398438Y255914D01*
X396866Y254342D01*
X394812Y253491D01*
X392588Y253491D01*
X390534Y254342D01*
X389518Y255359D01*
X389408Y255444D01*
X389301Y255533D01*
X389282Y255541D01*
X389266Y255554D01*
X389139Y255609D01*
X389013Y255668D01*
X388993Y255672D01*
X388974Y255680D01*
X388836Y255702D01*
X388701Y255728D01*
X388680Y255727D01*
X388660Y255730D01*
X388521Y255717D01*
X388383Y255708D01*
X388364Y255702D01*
X388344Y255700D01*
X388212Y255653D01*
X388081Y255610D01*
X388063Y255599D01*
X388044Y255593D01*
X387929Y255514D01*
X387812Y255440D01*
X387798Y255425D01*
X387781Y255414D01*
X387689Y255310D01*
X387594Y255208D01*
X387584Y255191D01*
X387571Y255176D01*
X387508Y255052D01*
X387440Y254930D01*
X387435Y254910D01*
X387426Y254892D01*
X387396Y254756D01*
X387361Y254622D01*
X387359Y254594D01*
X387357Y254582D01*
X387357Y254562D01*
X387351Y254461D01*
X387351Y205740D01*
X387366Y205622D01*
X387373Y205503D01*
X387386Y205465D01*
X387391Y205424D01*
X387434Y205314D01*
X387471Y205201D01*
X387493Y205166D01*
X387508Y205129D01*
X387578Y205033D01*
X387641Y204932D01*
X387671Y204904D01*
X387694Y204871D01*
X387786Y204796D01*
X387873Y204714D01*
X387908Y204694D01*
X387939Y204669D01*
X388047Y204618D01*
X388151Y204560D01*
X388191Y204550D01*
X388227Y204533D01*
X388344Y204511D01*
X388459Y204481D01*
X388520Y204477D01*
X388540Y204473D01*
X388560Y204475D01*
X388620Y204471D01*
X454660Y204471D01*
X454758Y204483D01*
G37*
%LPC*%
G36*
X655726Y14604D02*
X655726Y14604D01*
X647091Y18181D01*
X640481Y24791D01*
X636904Y33426D01*
X636904Y42774D01*
X640481Y51409D01*
X647091Y58019D01*
X655726Y61596D01*
X665074Y61596D01*
X673709Y58019D01*
X680319Y51409D01*
X683896Y42774D01*
X683896Y33426D01*
X680319Y24791D01*
X673709Y18181D01*
X665074Y14604D01*
X655726Y14604D01*
G37*
%LPD*%
%LPC*%
G36*
X33426Y14604D02*
X33426Y14604D01*
X24791Y18181D01*
X18181Y24791D01*
X14604Y33426D01*
X14604Y42774D01*
X18181Y51409D01*
X24791Y58019D01*
X33426Y61596D01*
X42774Y61596D01*
X51409Y58019D01*
X58019Y51409D01*
X61596Y42774D01*
X61596Y33426D01*
X58019Y24791D01*
X51409Y18181D01*
X42774Y14604D01*
X33426Y14604D01*
G37*
%LPD*%
%LPC*%
G36*
X33426Y471804D02*
X33426Y471804D01*
X24791Y475381D01*
X18181Y481991D01*
X14604Y490626D01*
X14604Y499974D01*
X18181Y508609D01*
X24791Y515219D01*
X33426Y518796D01*
X42774Y518796D01*
X51409Y515219D01*
X58019Y508609D01*
X61596Y499974D01*
X61596Y490626D01*
X58019Y481991D01*
X51409Y475381D01*
X42774Y471804D01*
X33426Y471804D01*
G37*
%LPD*%
%LPC*%
G36*
X655726Y471804D02*
X655726Y471804D01*
X647091Y475381D01*
X640481Y481991D01*
X636904Y490626D01*
X636904Y499974D01*
X640481Y508609D01*
X647091Y515219D01*
X655726Y518796D01*
X665074Y518796D01*
X673709Y515219D01*
X680319Y508609D01*
X683896Y499974D01*
X683896Y490626D01*
X680319Y481991D01*
X673709Y475381D01*
X665074Y471804D01*
X655726Y471804D01*
G37*
%LPD*%
%LPC*%
G36*
X327392Y402159D02*
X327392Y402159D01*
X320541Y404997D01*
X315297Y410241D01*
X312459Y417092D01*
X312459Y424508D01*
X315297Y431359D01*
X320541Y436603D01*
X327392Y439441D01*
X334808Y439441D01*
X341659Y436603D01*
X346903Y431359D01*
X349741Y424508D01*
X349741Y417092D01*
X346903Y410241D01*
X341659Y404997D01*
X334808Y402159D01*
X327392Y402159D01*
G37*
%LPD*%
%LPC*%
G36*
X151288Y245871D02*
X151288Y245871D01*
X149234Y246722D01*
X147662Y248294D01*
X146811Y250348D01*
X146811Y252572D01*
X147662Y254626D01*
X149234Y256198D01*
X149470Y256296D01*
X149531Y256333D01*
X149597Y256363D01*
X149635Y256398D01*
X149679Y256425D01*
X149725Y256480D01*
X149778Y256529D01*
X149803Y256575D01*
X149836Y256615D01*
X149862Y256682D01*
X149896Y256744D01*
X149906Y256796D01*
X149924Y256844D01*
X149927Y256916D01*
X149940Y256987D01*
X149932Y257038D01*
X149935Y257090D01*
X149915Y257159D01*
X149904Y257230D01*
X149881Y257276D01*
X149866Y257326D01*
X149825Y257385D01*
X149793Y257449D01*
X149756Y257486D01*
X149726Y257528D01*
X149668Y257571D01*
X149617Y257621D01*
X149554Y257656D01*
X149528Y257675D01*
X149506Y257682D01*
X149470Y257702D01*
X145727Y259253D01*
X142413Y262567D01*
X140619Y266897D01*
X140619Y271583D01*
X142413Y275913D01*
X145727Y279227D01*
X150057Y281021D01*
X154743Y281021D01*
X159073Y279227D01*
X162387Y275913D01*
X164181Y271583D01*
X164181Y266897D01*
X162387Y262567D01*
X159073Y259253D01*
X155330Y257702D01*
X155269Y257664D01*
X155203Y257635D01*
X155165Y257600D01*
X155121Y257573D01*
X155075Y257517D01*
X155022Y257469D01*
X154997Y257423D01*
X154964Y257383D01*
X154938Y257316D01*
X154904Y257253D01*
X154894Y257202D01*
X154876Y257154D01*
X154873Y257082D01*
X154860Y257011D01*
X154868Y256960D01*
X154865Y256908D01*
X154885Y256839D01*
X154896Y256768D01*
X154919Y256722D01*
X154934Y256672D01*
X154975Y256613D01*
X155007Y256549D01*
X155044Y256512D01*
X155074Y256469D01*
X155132Y256427D01*
X155183Y256376D01*
X155246Y256342D01*
X155272Y256323D01*
X155294Y256315D01*
X155330Y256296D01*
X155566Y256198D01*
X157138Y254626D01*
X157989Y252572D01*
X157989Y250348D01*
X157138Y248294D01*
X155566Y246722D01*
X153512Y245871D01*
X151288Y245871D01*
G37*
%LPD*%
%LPC*%
G36*
X124657Y257459D02*
X124657Y257459D01*
X120327Y259253D01*
X117013Y262567D01*
X115219Y266897D01*
X115219Y271583D01*
X117013Y275913D01*
X120327Y279227D01*
X124657Y281021D01*
X129343Y281021D01*
X133673Y279227D01*
X136987Y275913D01*
X138781Y271583D01*
X138781Y266897D01*
X136987Y262567D01*
X133673Y259253D01*
X129343Y257459D01*
X124657Y257459D01*
G37*
%LPD*%
%LPC*%
G36*
X277057Y105059D02*
X277057Y105059D01*
X272727Y106853D01*
X269413Y110167D01*
X267619Y114497D01*
X267619Y119183D01*
X269413Y123513D01*
X272727Y126827D01*
X277057Y128621D01*
X281743Y128621D01*
X286073Y126827D01*
X289387Y123513D01*
X291181Y119183D01*
X291181Y114497D01*
X289387Y110167D01*
X286073Y106853D01*
X281743Y105059D01*
X277057Y105059D01*
G37*
%LPD*%
%LPC*%
G36*
X200857Y257459D02*
X200857Y257459D01*
X196527Y259253D01*
X193213Y262567D01*
X191419Y266897D01*
X191419Y271583D01*
X193213Y275913D01*
X196527Y279227D01*
X200857Y281021D01*
X205543Y281021D01*
X209873Y279227D01*
X213187Y275913D01*
X214981Y271583D01*
X214981Y266897D01*
X213187Y262567D01*
X209873Y259253D01*
X205543Y257459D01*
X200857Y257459D01*
G37*
%LPD*%
%LPC*%
G36*
X124657Y105059D02*
X124657Y105059D01*
X120327Y106853D01*
X117013Y110167D01*
X115219Y114497D01*
X115219Y119183D01*
X117013Y123513D01*
X120327Y126827D01*
X124657Y128621D01*
X129343Y128621D01*
X133673Y126827D01*
X136987Y123513D01*
X138781Y119183D01*
X138781Y114497D01*
X136987Y110167D01*
X133673Y106853D01*
X129343Y105059D01*
X124657Y105059D01*
G37*
%LPD*%
%LPC*%
G36*
X150057Y105059D02*
X150057Y105059D01*
X145727Y106853D01*
X142413Y110167D01*
X140619Y114497D01*
X140619Y119183D01*
X142413Y123513D01*
X145727Y126827D01*
X150057Y128621D01*
X154743Y128621D01*
X159073Y126827D01*
X162387Y123513D01*
X164181Y119183D01*
X164181Y114497D01*
X162387Y110167D01*
X159073Y106853D01*
X154743Y105059D01*
X150057Y105059D01*
G37*
%LPD*%
%LPC*%
G36*
X226257Y257459D02*
X226257Y257459D01*
X221927Y259253D01*
X218613Y262567D01*
X216819Y266897D01*
X216819Y271583D01*
X218613Y275913D01*
X221927Y279227D01*
X226257Y281021D01*
X230943Y281021D01*
X235273Y279227D01*
X238587Y275913D01*
X240381Y271583D01*
X240381Y266897D01*
X238587Y262567D01*
X235273Y259253D01*
X230943Y257459D01*
X226257Y257459D01*
G37*
%LPD*%
%LPC*%
G36*
X175457Y105059D02*
X175457Y105059D01*
X171127Y106853D01*
X167813Y110167D01*
X166019Y114497D01*
X166019Y119183D01*
X167813Y123513D01*
X171127Y126827D01*
X175457Y128621D01*
X180143Y128621D01*
X184473Y126827D01*
X187787Y123513D01*
X189581Y119183D01*
X189581Y114497D01*
X187787Y110167D01*
X184473Y106853D01*
X180143Y105059D01*
X175457Y105059D01*
G37*
%LPD*%
%LPC*%
G36*
X200857Y105059D02*
X200857Y105059D01*
X196527Y106853D01*
X193213Y110167D01*
X191419Y114497D01*
X191419Y119183D01*
X193213Y123513D01*
X196527Y126827D01*
X200857Y128621D01*
X205543Y128621D01*
X209873Y126827D01*
X213187Y123513D01*
X214981Y119183D01*
X214981Y114497D01*
X213187Y110167D01*
X209873Y106853D01*
X205543Y105059D01*
X200857Y105059D01*
G37*
%LPD*%
%LPC*%
G36*
X226257Y105059D02*
X226257Y105059D01*
X221927Y106853D01*
X218613Y110167D01*
X216819Y114497D01*
X216819Y119183D01*
X218613Y123513D01*
X221927Y126827D01*
X226257Y128621D01*
X230943Y128621D01*
X235273Y126827D01*
X238587Y123513D01*
X240381Y119183D01*
X240381Y114497D01*
X238587Y110167D01*
X235273Y106853D01*
X230943Y105059D01*
X226257Y105059D01*
G37*
%LPD*%
%LPC*%
G36*
X175457Y257459D02*
X175457Y257459D01*
X171127Y259253D01*
X167813Y262567D01*
X166019Y266897D01*
X166019Y271583D01*
X167813Y275913D01*
X171127Y279227D01*
X175457Y281021D01*
X180143Y281021D01*
X184473Y279227D01*
X187787Y275913D01*
X189581Y271583D01*
X189581Y266897D01*
X187787Y262567D01*
X184473Y259253D01*
X180143Y257459D01*
X175457Y257459D01*
G37*
%LPD*%
%LPC*%
G36*
X251657Y105059D02*
X251657Y105059D01*
X247327Y106853D01*
X244013Y110167D01*
X242219Y114497D01*
X242219Y119183D01*
X244013Y123513D01*
X247327Y126827D01*
X251657Y128621D01*
X256343Y128621D01*
X260673Y126827D01*
X263987Y123513D01*
X265781Y119183D01*
X265781Y114497D01*
X263987Y110167D01*
X260673Y106853D01*
X256343Y105059D01*
X251657Y105059D01*
G37*
%LPD*%
%LPC*%
G36*
X99257Y105059D02*
X99257Y105059D01*
X94927Y106853D01*
X91613Y110167D01*
X89819Y114497D01*
X89819Y119183D01*
X91613Y123513D01*
X94927Y126827D01*
X99257Y128621D01*
X103943Y128621D01*
X108273Y126827D01*
X111587Y123513D01*
X113381Y119183D01*
X113381Y114497D01*
X111587Y110167D01*
X108273Y106853D01*
X103943Y105059D01*
X99257Y105059D01*
G37*
%LPD*%
%LPC*%
G36*
X277057Y257459D02*
X277057Y257459D01*
X272727Y259253D01*
X269413Y262567D01*
X267619Y266897D01*
X267619Y271583D01*
X269413Y275913D01*
X272727Y279227D01*
X277057Y281021D01*
X281743Y281021D01*
X286073Y279227D01*
X289387Y275913D01*
X291181Y271583D01*
X291181Y266897D01*
X289387Y262567D01*
X286073Y259253D01*
X281743Y257459D01*
X277057Y257459D01*
G37*
%LPD*%
%LPC*%
G36*
X251657Y257459D02*
X251657Y257459D01*
X247327Y259253D01*
X244013Y262567D01*
X242219Y266897D01*
X242219Y271583D01*
X244013Y275913D01*
X247327Y279227D01*
X251657Y281021D01*
X256343Y281021D01*
X260673Y279227D01*
X263987Y275913D01*
X265781Y271583D01*
X265781Y266897D01*
X263987Y262567D01*
X260673Y259253D01*
X256343Y257459D01*
X251657Y257459D01*
G37*
%LPD*%
%LPC*%
G36*
X163063Y434259D02*
X163063Y434259D01*
X159299Y435818D01*
X156418Y438699D01*
X154859Y442463D01*
X154859Y446537D01*
X156418Y450301D01*
X159299Y453182D01*
X163063Y454741D01*
X167137Y454741D01*
X170901Y453182D01*
X173782Y450301D01*
X175341Y446537D01*
X175341Y442463D01*
X173782Y438699D01*
X170901Y435818D01*
X167137Y434259D01*
X163063Y434259D01*
G37*
%LPD*%
%LPC*%
G36*
X264663Y434259D02*
X264663Y434259D01*
X260899Y435818D01*
X258018Y438699D01*
X256459Y442463D01*
X256459Y446537D01*
X258018Y450301D01*
X260899Y453182D01*
X264663Y454741D01*
X268737Y454741D01*
X272501Y453182D01*
X275382Y450301D01*
X276941Y446537D01*
X276941Y442463D01*
X275382Y438699D01*
X272501Y435818D01*
X268737Y434259D01*
X264663Y434259D01*
G37*
%LPD*%
%LPC*%
G36*
X112263Y434259D02*
X112263Y434259D01*
X108499Y435818D01*
X105618Y438699D01*
X104059Y442463D01*
X104059Y446537D01*
X105618Y450301D01*
X108499Y453182D01*
X112263Y454741D01*
X116337Y454741D01*
X120101Y453182D01*
X122982Y450301D01*
X124541Y446537D01*
X124541Y442463D01*
X122982Y438699D01*
X120101Y435818D01*
X116337Y434259D01*
X112263Y434259D01*
G37*
%LPD*%
%LPC*%
G36*
X213863Y434259D02*
X213863Y434259D01*
X210099Y435818D01*
X207218Y438699D01*
X205659Y442463D01*
X205659Y446537D01*
X207218Y450301D01*
X210099Y453182D01*
X213863Y454741D01*
X217937Y454741D01*
X221701Y453182D01*
X224582Y450301D01*
X226141Y446537D01*
X226141Y442463D01*
X224582Y438699D01*
X221701Y435818D01*
X217937Y434259D01*
X213863Y434259D01*
G37*
%LPD*%
%LPC*%
G36*
X582302Y439559D02*
X582302Y439559D01*
X578796Y441012D01*
X576112Y443696D01*
X574659Y447202D01*
X574659Y450998D01*
X576112Y454504D01*
X578796Y457188D01*
X582302Y458641D01*
X586098Y458641D01*
X589604Y457188D01*
X592288Y454504D01*
X593741Y450998D01*
X593741Y447202D01*
X592288Y443696D01*
X589604Y441012D01*
X586098Y439559D01*
X582302Y439559D01*
G37*
%LPD*%
%LPC*%
G36*
X535302Y409559D02*
X535302Y409559D01*
X531796Y411012D01*
X529112Y413696D01*
X527659Y417202D01*
X527659Y420998D01*
X529112Y424504D01*
X531796Y427188D01*
X535302Y428641D01*
X539098Y428641D01*
X542604Y427188D01*
X545288Y424504D01*
X546741Y420998D01*
X546741Y417202D01*
X545288Y413696D01*
X542604Y411012D01*
X539098Y409559D01*
X535302Y409559D01*
G37*
%LPD*%
%LPC*%
G36*
X360014Y384719D02*
X360014Y384719D01*
X356713Y386087D01*
X354187Y388613D01*
X352819Y391914D01*
X352819Y395486D01*
X354187Y398787D01*
X356713Y401313D01*
X360014Y402681D01*
X363586Y402681D01*
X366887Y401313D01*
X369413Y398787D01*
X370781Y395486D01*
X370781Y391914D01*
X369413Y388613D01*
X366887Y386087D01*
X363586Y384719D01*
X360014Y384719D01*
G37*
%LPD*%
%LPC*%
G36*
X385014Y384719D02*
X385014Y384719D01*
X381713Y386087D01*
X379187Y388613D01*
X377819Y391914D01*
X377819Y395486D01*
X379187Y398787D01*
X381713Y401313D01*
X385014Y402681D01*
X388586Y402681D01*
X391887Y401313D01*
X394413Y398787D01*
X395781Y395486D01*
X395781Y391914D01*
X394413Y388613D01*
X391887Y386087D01*
X388586Y384719D01*
X385014Y384719D01*
G37*
%LPD*%
%LPC*%
G36*
X434457Y298836D02*
X434457Y298836D01*
X431236Y300170D01*
X428770Y302636D01*
X427436Y305857D01*
X427436Y309343D01*
X428770Y312564D01*
X431236Y315030D01*
X434457Y316364D01*
X437943Y316364D01*
X441164Y315030D01*
X443630Y312564D01*
X444964Y309343D01*
X444964Y305857D01*
X443630Y302636D01*
X441164Y300170D01*
X437943Y298836D01*
X434457Y298836D01*
G37*
%LPD*%
%LPC*%
G36*
X459857Y298836D02*
X459857Y298836D01*
X456636Y300170D01*
X454170Y302636D01*
X452836Y305857D01*
X452836Y309343D01*
X454170Y312564D01*
X456636Y315030D01*
X459857Y316364D01*
X463343Y316364D01*
X466564Y315030D01*
X469030Y312564D01*
X470364Y309343D01*
X470364Y305857D01*
X469030Y302636D01*
X466564Y300170D01*
X463343Y298836D01*
X459857Y298836D01*
G37*
%LPD*%
%LPC*%
G36*
X485257Y298836D02*
X485257Y298836D01*
X482036Y300170D01*
X479570Y302636D01*
X478236Y305857D01*
X478236Y309343D01*
X479570Y312564D01*
X482036Y315030D01*
X485257Y316364D01*
X488743Y316364D01*
X491964Y315030D01*
X494430Y312564D01*
X495764Y309343D01*
X495764Y305857D01*
X494430Y302636D01*
X491964Y300170D01*
X488743Y298836D01*
X485257Y298836D01*
G37*
%LPD*%
%LPC*%
G36*
X510657Y298836D02*
X510657Y298836D01*
X507436Y300170D01*
X504970Y302636D01*
X503636Y305857D01*
X503636Y309343D01*
X504970Y312564D01*
X507436Y315030D01*
X510657Y316364D01*
X514143Y316364D01*
X517364Y315030D01*
X519830Y312564D01*
X521164Y309343D01*
X521164Y305857D01*
X519830Y302636D01*
X517364Y300170D01*
X514143Y298836D01*
X510657Y298836D01*
G37*
%LPD*%
%LPC*%
G36*
X536057Y298836D02*
X536057Y298836D01*
X532836Y300170D01*
X530370Y302636D01*
X529036Y305857D01*
X529036Y309343D01*
X530370Y312564D01*
X532836Y315030D01*
X536057Y316364D01*
X539543Y316364D01*
X542764Y315030D01*
X545230Y312564D01*
X546564Y309343D01*
X546564Y305857D01*
X545230Y302636D01*
X542764Y300170D01*
X539543Y298836D01*
X536057Y298836D01*
G37*
%LPD*%
%LPC*%
G36*
X561457Y298836D02*
X561457Y298836D01*
X558236Y300170D01*
X555770Y302636D01*
X554436Y305857D01*
X554436Y309343D01*
X555770Y312564D01*
X558236Y315030D01*
X561457Y316364D01*
X564943Y316364D01*
X568164Y315030D01*
X570630Y312564D01*
X571964Y309343D01*
X571964Y305857D01*
X570630Y302636D01*
X568164Y300170D01*
X564943Y298836D01*
X561457Y298836D01*
G37*
%LPD*%
%LPC*%
G36*
X434457Y324236D02*
X434457Y324236D01*
X431236Y325570D01*
X428770Y328036D01*
X427436Y331257D01*
X427436Y334743D01*
X428770Y337964D01*
X431236Y340430D01*
X434457Y341764D01*
X437943Y341764D01*
X441164Y340430D01*
X443630Y337964D01*
X444964Y334743D01*
X444964Y331257D01*
X443630Y328036D01*
X441164Y325570D01*
X437943Y324236D01*
X434457Y324236D01*
G37*
%LPD*%
%LPC*%
G36*
X459857Y324236D02*
X459857Y324236D01*
X456636Y325570D01*
X454170Y328036D01*
X452836Y331257D01*
X452836Y334743D01*
X454170Y337964D01*
X456636Y340430D01*
X459857Y341764D01*
X463343Y341764D01*
X466564Y340430D01*
X469030Y337964D01*
X470364Y334743D01*
X470364Y331257D01*
X469030Y328036D01*
X466564Y325570D01*
X463343Y324236D01*
X459857Y324236D01*
G37*
%LPD*%
%LPC*%
G36*
X536057Y324236D02*
X536057Y324236D01*
X532836Y325570D01*
X530370Y328036D01*
X529036Y331257D01*
X529036Y334743D01*
X530370Y337964D01*
X532836Y340430D01*
X536057Y341764D01*
X539543Y341764D01*
X542764Y340430D01*
X545230Y337964D01*
X546564Y334743D01*
X546564Y331257D01*
X545230Y328036D01*
X542764Y325570D01*
X539543Y324236D01*
X536057Y324236D01*
G37*
%LPD*%
%LPC*%
G36*
X510657Y324236D02*
X510657Y324236D01*
X507436Y325570D01*
X504970Y328036D01*
X503636Y331257D01*
X503636Y334743D01*
X504970Y337964D01*
X507436Y340430D01*
X510657Y341764D01*
X514143Y341764D01*
X517364Y340430D01*
X519830Y337964D01*
X521164Y334743D01*
X521164Y331257D01*
X519830Y328036D01*
X517364Y325570D01*
X514143Y324236D01*
X510657Y324236D01*
G37*
%LPD*%
%LPC*%
G36*
X485257Y324236D02*
X485257Y324236D01*
X482036Y325570D01*
X479570Y328036D01*
X478236Y331257D01*
X478236Y334743D01*
X479570Y337964D01*
X482036Y340430D01*
X485257Y341764D01*
X488743Y341764D01*
X491964Y340430D01*
X494430Y337964D01*
X495764Y334743D01*
X495764Y331257D01*
X494430Y328036D01*
X491964Y325570D01*
X488743Y324236D01*
X485257Y324236D01*
G37*
%LPD*%
%LPC*%
G36*
X155057Y324236D02*
X155057Y324236D01*
X151836Y325570D01*
X149370Y328036D01*
X148036Y331257D01*
X148036Y334743D01*
X149370Y337964D01*
X151836Y340430D01*
X155057Y341764D01*
X158543Y341764D01*
X161764Y340430D01*
X164230Y337964D01*
X165564Y334743D01*
X165564Y331257D01*
X164230Y328036D01*
X161764Y325570D01*
X158543Y324236D01*
X155057Y324236D01*
G37*
%LPD*%
%LPC*%
G36*
X180457Y324236D02*
X180457Y324236D01*
X177236Y325570D01*
X174770Y328036D01*
X173436Y331257D01*
X173436Y334743D01*
X174770Y337964D01*
X177236Y340430D01*
X180457Y341764D01*
X183943Y341764D01*
X187164Y340430D01*
X189630Y337964D01*
X190964Y334743D01*
X190964Y331257D01*
X189630Y328036D01*
X187164Y325570D01*
X183943Y324236D01*
X180457Y324236D01*
G37*
%LPD*%
%LPC*%
G36*
X205857Y70236D02*
X205857Y70236D01*
X202636Y71570D01*
X200170Y74036D01*
X198836Y77257D01*
X198836Y80743D01*
X200170Y83964D01*
X202636Y86430D01*
X205857Y87764D01*
X209343Y87764D01*
X212564Y86430D01*
X215030Y83964D01*
X216364Y80743D01*
X216364Y77257D01*
X215030Y74036D01*
X212564Y71570D01*
X209343Y70236D01*
X205857Y70236D01*
G37*
%LPD*%
%LPC*%
G36*
X155057Y44836D02*
X155057Y44836D01*
X151836Y46170D01*
X149370Y48636D01*
X148036Y51857D01*
X148036Y55343D01*
X149370Y58564D01*
X151836Y61030D01*
X155057Y62364D01*
X158543Y62364D01*
X161764Y61030D01*
X164230Y58564D01*
X165564Y55343D01*
X165564Y51857D01*
X164230Y48636D01*
X161764Y46170D01*
X158543Y44836D01*
X155057Y44836D01*
G37*
%LPD*%
%LPC*%
G36*
X180457Y44836D02*
X180457Y44836D01*
X177236Y46170D01*
X174770Y48636D01*
X173436Y51857D01*
X173436Y55343D01*
X174770Y58564D01*
X177236Y61030D01*
X180457Y62364D01*
X183943Y62364D01*
X187164Y61030D01*
X189630Y58564D01*
X190964Y55343D01*
X190964Y51857D01*
X189630Y48636D01*
X187164Y46170D01*
X183943Y44836D01*
X180457Y44836D01*
G37*
%LPD*%
%LPC*%
G36*
X205857Y44836D02*
X205857Y44836D01*
X202636Y46170D01*
X200170Y48636D01*
X198836Y51857D01*
X198836Y55343D01*
X200170Y58564D01*
X202636Y61030D01*
X205857Y62364D01*
X209343Y62364D01*
X212564Y61030D01*
X215030Y58564D01*
X216364Y55343D01*
X216364Y51857D01*
X215030Y48636D01*
X212564Y46170D01*
X209343Y44836D01*
X205857Y44836D01*
G37*
%LPD*%
%LPC*%
G36*
X129657Y298836D02*
X129657Y298836D01*
X126436Y300170D01*
X123970Y302636D01*
X122636Y305857D01*
X122636Y309343D01*
X123970Y312564D01*
X126436Y315030D01*
X129657Y316364D01*
X133143Y316364D01*
X136364Y315030D01*
X138830Y312564D01*
X140164Y309343D01*
X140164Y305857D01*
X138830Y302636D01*
X136364Y300170D01*
X133143Y298836D01*
X129657Y298836D01*
G37*
%LPD*%
%LPC*%
G36*
X231257Y298836D02*
X231257Y298836D01*
X228036Y300170D01*
X225570Y302636D01*
X224236Y305857D01*
X224236Y309343D01*
X225570Y312564D01*
X228036Y315030D01*
X231257Y316364D01*
X234743Y316364D01*
X237964Y315030D01*
X240430Y312564D01*
X241764Y309343D01*
X241764Y305857D01*
X240430Y302636D01*
X237964Y300170D01*
X234743Y298836D01*
X231257Y298836D01*
G37*
%LPD*%
%LPC*%
G36*
X256657Y298836D02*
X256657Y298836D01*
X253436Y300170D01*
X250970Y302636D01*
X249636Y305857D01*
X249636Y309343D01*
X250970Y312564D01*
X253436Y315030D01*
X256657Y316364D01*
X260143Y316364D01*
X263364Y315030D01*
X265830Y312564D01*
X267164Y309343D01*
X267164Y305857D01*
X265830Y302636D01*
X263364Y300170D01*
X260143Y298836D01*
X256657Y298836D01*
G37*
%LPD*%
%LPC*%
G36*
X282057Y298836D02*
X282057Y298836D01*
X278836Y300170D01*
X276370Y302636D01*
X275036Y305857D01*
X275036Y309343D01*
X276370Y312564D01*
X278836Y315030D01*
X282057Y316364D01*
X285543Y316364D01*
X288764Y315030D01*
X291230Y312564D01*
X292564Y309343D01*
X292564Y305857D01*
X291230Y302636D01*
X288764Y300170D01*
X285543Y298836D01*
X282057Y298836D01*
G37*
%LPD*%
%LPC*%
G36*
X307457Y298836D02*
X307457Y298836D01*
X304236Y300170D01*
X301770Y302636D01*
X300436Y305857D01*
X300436Y309343D01*
X301770Y312564D01*
X304236Y315030D01*
X307457Y316364D01*
X310943Y316364D01*
X314164Y315030D01*
X316630Y312564D01*
X317964Y309343D01*
X317964Y305857D01*
X316630Y302636D01*
X314164Y300170D01*
X310943Y298836D01*
X307457Y298836D01*
G37*
%LPD*%
%LPC*%
G36*
X332857Y298836D02*
X332857Y298836D01*
X329636Y300170D01*
X327170Y302636D01*
X325836Y305857D01*
X325836Y309343D01*
X327170Y312564D01*
X329636Y315030D01*
X332857Y316364D01*
X336343Y316364D01*
X339564Y315030D01*
X342030Y312564D01*
X343364Y309343D01*
X343364Y305857D01*
X342030Y302636D01*
X339564Y300170D01*
X336343Y298836D01*
X332857Y298836D01*
G37*
%LPD*%
%LPC*%
G36*
X358257Y298836D02*
X358257Y298836D01*
X355036Y300170D01*
X352570Y302636D01*
X351236Y305857D01*
X351236Y309343D01*
X352570Y312564D01*
X355036Y315030D01*
X358257Y316364D01*
X361743Y316364D01*
X364964Y315030D01*
X367430Y312564D01*
X368764Y309343D01*
X368764Y305857D01*
X367430Y302636D01*
X364964Y300170D01*
X361743Y298836D01*
X358257Y298836D01*
G37*
%LPD*%
%LPC*%
G36*
X205857Y324236D02*
X205857Y324236D01*
X202636Y325570D01*
X200170Y328036D01*
X198836Y331257D01*
X198836Y334743D01*
X200170Y337964D01*
X202636Y340430D01*
X205857Y341764D01*
X209343Y341764D01*
X212564Y340430D01*
X215030Y337964D01*
X216364Y334743D01*
X216364Y331257D01*
X215030Y328036D01*
X212564Y325570D01*
X209343Y324236D01*
X205857Y324236D01*
G37*
%LPD*%
%LPC*%
G36*
X205857Y298836D02*
X205857Y298836D01*
X202636Y300170D01*
X200170Y302636D01*
X198836Y305857D01*
X198836Y309343D01*
X200170Y312564D01*
X202636Y315030D01*
X205857Y316364D01*
X209343Y316364D01*
X212564Y315030D01*
X215030Y312564D01*
X216364Y309343D01*
X216364Y305857D01*
X215030Y302636D01*
X212564Y300170D01*
X209343Y298836D01*
X205857Y298836D01*
G37*
%LPD*%
%LPC*%
G36*
X231257Y324236D02*
X231257Y324236D01*
X228036Y325570D01*
X225570Y328036D01*
X224236Y331257D01*
X224236Y334743D01*
X225570Y337964D01*
X228036Y340430D01*
X231257Y341764D01*
X234743Y341764D01*
X237964Y340430D01*
X240430Y337964D01*
X241764Y334743D01*
X241764Y331257D01*
X240430Y328036D01*
X237964Y325570D01*
X234743Y324236D01*
X231257Y324236D01*
G37*
%LPD*%
%LPC*%
G36*
X129657Y324236D02*
X129657Y324236D01*
X126436Y325570D01*
X123970Y328036D01*
X122636Y331257D01*
X122636Y334743D01*
X123970Y337964D01*
X126436Y340430D01*
X129657Y341764D01*
X133143Y341764D01*
X136364Y340430D01*
X138830Y337964D01*
X140164Y334743D01*
X140164Y331257D01*
X138830Y328036D01*
X136364Y325570D01*
X133143Y324236D01*
X129657Y324236D01*
G37*
%LPD*%
%LPC*%
G36*
X383657Y324236D02*
X383657Y324236D01*
X380436Y325570D01*
X377970Y328036D01*
X376636Y331257D01*
X376636Y334743D01*
X377970Y337964D01*
X380436Y340430D01*
X383657Y341764D01*
X387143Y341764D01*
X390364Y340430D01*
X392830Y337964D01*
X394164Y334743D01*
X394164Y331257D01*
X392830Y328036D01*
X390364Y325570D01*
X387143Y324236D01*
X383657Y324236D01*
G37*
%LPD*%
%LPC*%
G36*
X358257Y324236D02*
X358257Y324236D01*
X355036Y325570D01*
X352570Y328036D01*
X351236Y331257D01*
X351236Y334743D01*
X352570Y337964D01*
X355036Y340430D01*
X358257Y341764D01*
X361743Y341764D01*
X364964Y340430D01*
X367430Y337964D01*
X368764Y334743D01*
X368764Y331257D01*
X367430Y328036D01*
X364964Y325570D01*
X361743Y324236D01*
X358257Y324236D01*
G37*
%LPD*%
%LPC*%
G36*
X332857Y324236D02*
X332857Y324236D01*
X329636Y325570D01*
X327170Y328036D01*
X325836Y331257D01*
X325836Y334743D01*
X327170Y337964D01*
X329636Y340430D01*
X332857Y341764D01*
X336343Y341764D01*
X339564Y340430D01*
X342030Y337964D01*
X343364Y334743D01*
X343364Y331257D01*
X342030Y328036D01*
X339564Y325570D01*
X336343Y324236D01*
X332857Y324236D01*
G37*
%LPD*%
%LPC*%
G36*
X383657Y298836D02*
X383657Y298836D01*
X380436Y300170D01*
X377970Y302636D01*
X376636Y305857D01*
X376636Y309343D01*
X377970Y312564D01*
X380436Y315030D01*
X383657Y316364D01*
X387143Y316364D01*
X390364Y315030D01*
X392830Y312564D01*
X394164Y309343D01*
X394164Y305857D01*
X392830Y302636D01*
X390364Y300170D01*
X387143Y298836D01*
X383657Y298836D01*
G37*
%LPD*%
%LPC*%
G36*
X155057Y298836D02*
X155057Y298836D01*
X151836Y300170D01*
X149370Y302636D01*
X148036Y305857D01*
X148036Y309343D01*
X149370Y312564D01*
X151836Y315030D01*
X155057Y316364D01*
X158543Y316364D01*
X161764Y315030D01*
X164230Y312564D01*
X165564Y309343D01*
X165564Y305857D01*
X164230Y302636D01*
X161764Y300170D01*
X158543Y298836D01*
X155057Y298836D01*
G37*
%LPD*%
%LPC*%
G36*
X180457Y298836D02*
X180457Y298836D01*
X177236Y300170D01*
X174770Y302636D01*
X173436Y305857D01*
X173436Y309343D01*
X174770Y312564D01*
X177236Y315030D01*
X180457Y316364D01*
X183943Y316364D01*
X187164Y315030D01*
X189630Y312564D01*
X190964Y309343D01*
X190964Y305857D01*
X189630Y302636D01*
X187164Y300170D01*
X183943Y298836D01*
X180457Y298836D01*
G37*
%LPD*%
%LPC*%
G36*
X231257Y44836D02*
X231257Y44836D01*
X228036Y46170D01*
X225570Y48636D01*
X224236Y51857D01*
X224236Y55343D01*
X225570Y58564D01*
X228036Y61030D01*
X231257Y62364D01*
X234743Y62364D01*
X237964Y61030D01*
X240430Y58564D01*
X241764Y55343D01*
X241764Y51857D01*
X240430Y48636D01*
X237964Y46170D01*
X234743Y44836D01*
X231257Y44836D01*
G37*
%LPD*%
%LPC*%
G36*
X256657Y44836D02*
X256657Y44836D01*
X253436Y46170D01*
X250970Y48636D01*
X249636Y51857D01*
X249636Y55343D01*
X250970Y58564D01*
X253436Y61030D01*
X256657Y62364D01*
X260143Y62364D01*
X263364Y61030D01*
X265830Y58564D01*
X267164Y55343D01*
X267164Y51857D01*
X265830Y48636D01*
X263364Y46170D01*
X260143Y44836D01*
X256657Y44836D01*
G37*
%LPD*%
%LPC*%
G36*
X155057Y70236D02*
X155057Y70236D01*
X151836Y71570D01*
X149370Y74036D01*
X148036Y77257D01*
X148036Y80743D01*
X149370Y83964D01*
X151836Y86430D01*
X155057Y87764D01*
X158543Y87764D01*
X161764Y86430D01*
X164230Y83964D01*
X165564Y80743D01*
X165564Y77257D01*
X164230Y74036D01*
X161764Y71570D01*
X158543Y70236D01*
X155057Y70236D01*
G37*
%LPD*%
%LPC*%
G36*
X282057Y44836D02*
X282057Y44836D01*
X278836Y46170D01*
X276370Y48636D01*
X275036Y51857D01*
X275036Y55343D01*
X276370Y58564D01*
X278836Y61030D01*
X282057Y62364D01*
X285543Y62364D01*
X288764Y61030D01*
X291230Y58564D01*
X292564Y55343D01*
X292564Y51857D01*
X291230Y48636D01*
X288764Y46170D01*
X285543Y44836D01*
X282057Y44836D01*
G37*
%LPD*%
%LPC*%
G36*
X307457Y44836D02*
X307457Y44836D01*
X304236Y46170D01*
X301770Y48636D01*
X300436Y51857D01*
X300436Y55343D01*
X301770Y58564D01*
X304236Y61030D01*
X307457Y62364D01*
X310943Y62364D01*
X314164Y61030D01*
X316630Y58564D01*
X317964Y55343D01*
X317964Y51857D01*
X316630Y48636D01*
X314164Y46170D01*
X310943Y44836D01*
X307457Y44836D01*
G37*
%LPD*%
%LPC*%
G36*
X332857Y44836D02*
X332857Y44836D01*
X329636Y46170D01*
X327170Y48636D01*
X325836Y51857D01*
X325836Y55343D01*
X327170Y58564D01*
X329636Y61030D01*
X332857Y62364D01*
X336343Y62364D01*
X339564Y61030D01*
X342030Y58564D01*
X343364Y55343D01*
X343364Y51857D01*
X342030Y48636D01*
X339564Y46170D01*
X336343Y44836D01*
X332857Y44836D01*
G37*
%LPD*%
%LPC*%
G36*
X358257Y44836D02*
X358257Y44836D01*
X355036Y46170D01*
X352570Y48636D01*
X351236Y51857D01*
X351236Y55343D01*
X352570Y58564D01*
X355036Y61030D01*
X358257Y62364D01*
X361743Y62364D01*
X364964Y61030D01*
X367430Y58564D01*
X368764Y55343D01*
X368764Y51857D01*
X367430Y48636D01*
X364964Y46170D01*
X361743Y44836D01*
X358257Y44836D01*
G37*
%LPD*%
%LPC*%
G36*
X129657Y70236D02*
X129657Y70236D01*
X126436Y71570D01*
X123970Y74036D01*
X122636Y77257D01*
X122636Y80743D01*
X123970Y83964D01*
X126436Y86430D01*
X129657Y87764D01*
X133143Y87764D01*
X136364Y86430D01*
X138830Y83964D01*
X140164Y80743D01*
X140164Y77257D01*
X138830Y74036D01*
X136364Y71570D01*
X133143Y70236D01*
X129657Y70236D01*
G37*
%LPD*%
%LPC*%
G36*
X282057Y70236D02*
X282057Y70236D01*
X278836Y71570D01*
X276370Y74036D01*
X275036Y77257D01*
X275036Y80743D01*
X276370Y83964D01*
X278836Y86430D01*
X282057Y87764D01*
X285543Y87764D01*
X288764Y86430D01*
X291230Y83964D01*
X292564Y80743D01*
X292564Y77257D01*
X291230Y74036D01*
X288764Y71570D01*
X285543Y70236D01*
X282057Y70236D01*
G37*
%LPD*%
%LPC*%
G36*
X307457Y70236D02*
X307457Y70236D01*
X304236Y71570D01*
X301770Y74036D01*
X300436Y77257D01*
X300436Y80743D01*
X301770Y83964D01*
X304236Y86430D01*
X307457Y87764D01*
X310943Y87764D01*
X314164Y86430D01*
X316630Y83964D01*
X317964Y80743D01*
X317964Y77257D01*
X316630Y74036D01*
X314164Y71570D01*
X310943Y70236D01*
X307457Y70236D01*
G37*
%LPD*%
%LPC*%
G36*
X332857Y70236D02*
X332857Y70236D01*
X329636Y71570D01*
X327170Y74036D01*
X325836Y77257D01*
X325836Y80743D01*
X327170Y83964D01*
X329636Y86430D01*
X332857Y87764D01*
X336343Y87764D01*
X339564Y86430D01*
X342030Y83964D01*
X343364Y80743D01*
X343364Y77257D01*
X342030Y74036D01*
X339564Y71570D01*
X336343Y70236D01*
X332857Y70236D01*
G37*
%LPD*%
%LPC*%
G36*
X383657Y44836D02*
X383657Y44836D01*
X380436Y46170D01*
X377970Y48636D01*
X376636Y51857D01*
X376636Y55343D01*
X377970Y58564D01*
X380436Y61030D01*
X383657Y62364D01*
X387143Y62364D01*
X390364Y61030D01*
X392830Y58564D01*
X394164Y55343D01*
X394164Y51857D01*
X392830Y48636D01*
X390364Y46170D01*
X387143Y44836D01*
X383657Y44836D01*
G37*
%LPD*%
%LPC*%
G36*
X358257Y70236D02*
X358257Y70236D01*
X355036Y71570D01*
X352570Y74036D01*
X351236Y77257D01*
X351236Y80743D01*
X352570Y83964D01*
X355036Y86430D01*
X358257Y87764D01*
X361743Y87764D01*
X364964Y86430D01*
X367430Y83964D01*
X368764Y80743D01*
X368764Y77257D01*
X367430Y74036D01*
X364964Y71570D01*
X361743Y70236D01*
X358257Y70236D01*
G37*
%LPD*%
%LPC*%
G36*
X409057Y44836D02*
X409057Y44836D01*
X405836Y46170D01*
X403370Y48636D01*
X402036Y51857D01*
X402036Y55343D01*
X403370Y58564D01*
X405836Y61030D01*
X409057Y62364D01*
X412543Y62364D01*
X415764Y61030D01*
X418230Y58564D01*
X419564Y55343D01*
X419564Y51857D01*
X418230Y48636D01*
X415764Y46170D01*
X412543Y44836D01*
X409057Y44836D01*
G37*
%LPD*%
%LPC*%
G36*
X383657Y70236D02*
X383657Y70236D01*
X380436Y71570D01*
X377970Y74036D01*
X376636Y77257D01*
X376636Y80743D01*
X377970Y83964D01*
X380436Y86430D01*
X383657Y87764D01*
X387143Y87764D01*
X390364Y86430D01*
X392830Y83964D01*
X394164Y80743D01*
X394164Y77257D01*
X392830Y74036D01*
X390364Y71570D01*
X387143Y70236D01*
X383657Y70236D01*
G37*
%LPD*%
%LPC*%
G36*
X434457Y44836D02*
X434457Y44836D01*
X431236Y46170D01*
X428770Y48636D01*
X427436Y51857D01*
X427436Y55343D01*
X428770Y58564D01*
X431236Y61030D01*
X434457Y62364D01*
X437943Y62364D01*
X441164Y61030D01*
X443630Y58564D01*
X444964Y55343D01*
X444964Y51857D01*
X443630Y48636D01*
X441164Y46170D01*
X437943Y44836D01*
X434457Y44836D01*
G37*
%LPD*%
%LPC*%
G36*
X459857Y44836D02*
X459857Y44836D01*
X456636Y46170D01*
X454170Y48636D01*
X452836Y51857D01*
X452836Y55343D01*
X454170Y58564D01*
X456636Y61030D01*
X459857Y62364D01*
X463343Y62364D01*
X466564Y61030D01*
X469030Y58564D01*
X470364Y55343D01*
X470364Y51857D01*
X469030Y48636D01*
X466564Y46170D01*
X463343Y44836D01*
X459857Y44836D01*
G37*
%LPD*%
%LPC*%
G36*
X485257Y44836D02*
X485257Y44836D01*
X482036Y46170D01*
X479570Y48636D01*
X478236Y51857D01*
X478236Y55343D01*
X479570Y58564D01*
X482036Y61030D01*
X485257Y62364D01*
X488743Y62364D01*
X491964Y61030D01*
X494430Y58564D01*
X495764Y55343D01*
X495764Y51857D01*
X494430Y48636D01*
X491964Y46170D01*
X488743Y44836D01*
X485257Y44836D01*
G37*
%LPD*%
%LPC*%
G36*
X510657Y44836D02*
X510657Y44836D01*
X507436Y46170D01*
X504970Y48636D01*
X503636Y51857D01*
X503636Y55343D01*
X504970Y58564D01*
X507436Y61030D01*
X510657Y62364D01*
X514143Y62364D01*
X517364Y61030D01*
X519830Y58564D01*
X521164Y55343D01*
X521164Y51857D01*
X519830Y48636D01*
X517364Y46170D01*
X514143Y44836D01*
X510657Y44836D01*
G37*
%LPD*%
%LPC*%
G36*
X536057Y44836D02*
X536057Y44836D01*
X532836Y46170D01*
X530370Y48636D01*
X529036Y51857D01*
X529036Y55343D01*
X530370Y58564D01*
X532836Y61030D01*
X536057Y62364D01*
X539543Y62364D01*
X542764Y61030D01*
X545230Y58564D01*
X546564Y55343D01*
X546564Y51857D01*
X545230Y48636D01*
X542764Y46170D01*
X539543Y44836D01*
X536057Y44836D01*
G37*
%LPD*%
%LPC*%
G36*
X409057Y70236D02*
X409057Y70236D01*
X405836Y71570D01*
X403370Y74036D01*
X402036Y77257D01*
X402036Y80743D01*
X403370Y83964D01*
X405836Y86430D01*
X409057Y87764D01*
X412543Y87764D01*
X415764Y86430D01*
X418230Y83964D01*
X419564Y80743D01*
X419564Y77257D01*
X418230Y74036D01*
X415764Y71570D01*
X412543Y70236D01*
X409057Y70236D01*
G37*
%LPD*%
%LPC*%
G36*
X129657Y44836D02*
X129657Y44836D01*
X126436Y46170D01*
X123970Y48636D01*
X122636Y51857D01*
X122636Y55343D01*
X123970Y58564D01*
X126436Y61030D01*
X129657Y62364D01*
X133143Y62364D01*
X136364Y61030D01*
X138830Y58564D01*
X140164Y55343D01*
X140164Y51857D01*
X138830Y48636D01*
X136364Y46170D01*
X133143Y44836D01*
X129657Y44836D01*
G37*
%LPD*%
%LPC*%
G36*
X434457Y70236D02*
X434457Y70236D01*
X431236Y71570D01*
X428770Y74036D01*
X427436Y77257D01*
X427436Y80743D01*
X428770Y83964D01*
X431236Y86430D01*
X434457Y87764D01*
X437943Y87764D01*
X441164Y86430D01*
X443630Y83964D01*
X444964Y80743D01*
X444964Y77257D01*
X443630Y74036D01*
X441164Y71570D01*
X437943Y70236D01*
X434457Y70236D01*
G37*
%LPD*%
%LPC*%
G36*
X561457Y44836D02*
X561457Y44836D01*
X558236Y46170D01*
X555770Y48636D01*
X554436Y51857D01*
X554436Y55343D01*
X555770Y58564D01*
X558236Y61030D01*
X561457Y62364D01*
X564943Y62364D01*
X568164Y61030D01*
X570630Y58564D01*
X571964Y55343D01*
X571964Y51857D01*
X570630Y48636D01*
X568164Y46170D01*
X564943Y44836D01*
X561457Y44836D01*
G37*
%LPD*%
%LPC*%
G36*
X180457Y70236D02*
X180457Y70236D01*
X177236Y71570D01*
X174770Y74036D01*
X173436Y77257D01*
X173436Y80743D01*
X174770Y83964D01*
X177236Y86430D01*
X180457Y87764D01*
X183943Y87764D01*
X187164Y86430D01*
X189630Y83964D01*
X190964Y80743D01*
X190964Y77257D01*
X189630Y74036D01*
X187164Y71570D01*
X183943Y70236D01*
X180457Y70236D01*
G37*
%LPD*%
%LPC*%
G36*
X307457Y324236D02*
X307457Y324236D01*
X304236Y325570D01*
X301770Y328036D01*
X300436Y331257D01*
X300436Y334743D01*
X301770Y337964D01*
X304236Y340430D01*
X307457Y341764D01*
X310943Y341764D01*
X314164Y340430D01*
X316630Y337964D01*
X317964Y334743D01*
X317964Y331257D01*
X316630Y328036D01*
X314164Y325570D01*
X310943Y324236D01*
X307457Y324236D01*
G37*
%LPD*%
%LPC*%
G36*
X256657Y324236D02*
X256657Y324236D01*
X253436Y325570D01*
X250970Y328036D01*
X249636Y331257D01*
X249636Y334743D01*
X250970Y337964D01*
X253436Y340430D01*
X256657Y341764D01*
X260143Y341764D01*
X263364Y340430D01*
X265830Y337964D01*
X267164Y334743D01*
X267164Y331257D01*
X265830Y328036D01*
X263364Y325570D01*
X260143Y324236D01*
X256657Y324236D01*
G37*
%LPD*%
%LPC*%
G36*
X459857Y70236D02*
X459857Y70236D01*
X456636Y71570D01*
X454170Y74036D01*
X452836Y77257D01*
X452836Y80743D01*
X454170Y83964D01*
X456636Y86430D01*
X459857Y87764D01*
X463343Y87764D01*
X466564Y86430D01*
X469030Y83964D01*
X470364Y80743D01*
X470364Y77257D01*
X469030Y74036D01*
X466564Y71570D01*
X463343Y70236D01*
X459857Y70236D01*
G37*
%LPD*%
%LPC*%
G36*
X282057Y324236D02*
X282057Y324236D01*
X278836Y325570D01*
X276370Y328036D01*
X275036Y331257D01*
X275036Y334743D01*
X276370Y337964D01*
X278836Y340430D01*
X282057Y341764D01*
X285543Y341764D01*
X288764Y340430D01*
X291230Y337964D01*
X292564Y334743D01*
X292564Y331257D01*
X291230Y328036D01*
X288764Y325570D01*
X285543Y324236D01*
X282057Y324236D01*
G37*
%LPD*%
%LPC*%
G36*
X485257Y70236D02*
X485257Y70236D01*
X482036Y71570D01*
X479570Y74036D01*
X478236Y77257D01*
X478236Y80743D01*
X479570Y83964D01*
X482036Y86430D01*
X485257Y87764D01*
X488743Y87764D01*
X491964Y86430D01*
X494430Y83964D01*
X495764Y80743D01*
X495764Y77257D01*
X494430Y74036D01*
X491964Y71570D01*
X488743Y70236D01*
X485257Y70236D01*
G37*
%LPD*%
%LPC*%
G36*
X510657Y70236D02*
X510657Y70236D01*
X507436Y71570D01*
X504970Y74036D01*
X503636Y77257D01*
X503636Y80743D01*
X504970Y83964D01*
X507436Y86430D01*
X510657Y87764D01*
X514143Y87764D01*
X517364Y86430D01*
X519830Y83964D01*
X521164Y80743D01*
X521164Y77257D01*
X519830Y74036D01*
X517364Y71570D01*
X514143Y70236D01*
X510657Y70236D01*
G37*
%LPD*%
%LPC*%
G36*
X231257Y70236D02*
X231257Y70236D01*
X228036Y71570D01*
X225570Y74036D01*
X224236Y77257D01*
X224236Y80743D01*
X225570Y83964D01*
X228036Y86430D01*
X231257Y87764D01*
X234743Y87764D01*
X237964Y86430D01*
X240430Y83964D01*
X241764Y80743D01*
X241764Y77257D01*
X240430Y74036D01*
X237964Y71570D01*
X234743Y70236D01*
X231257Y70236D01*
G37*
%LPD*%
%LPC*%
G36*
X256657Y70236D02*
X256657Y70236D01*
X253436Y71570D01*
X250970Y74036D01*
X249636Y77257D01*
X249636Y80743D01*
X250970Y83964D01*
X253436Y86430D01*
X256657Y87764D01*
X260143Y87764D01*
X263364Y86430D01*
X265830Y83964D01*
X267164Y80743D01*
X267164Y77257D01*
X265830Y74036D01*
X263364Y71570D01*
X260143Y70236D01*
X256657Y70236D01*
G37*
%LPD*%
%LPC*%
G36*
X561457Y70236D02*
X561457Y70236D01*
X558236Y71570D01*
X555770Y74036D01*
X554436Y77257D01*
X554436Y80743D01*
X555770Y83964D01*
X558236Y86430D01*
X561457Y87764D01*
X564943Y87764D01*
X568164Y86430D01*
X570630Y83964D01*
X571964Y80743D01*
X571964Y77257D01*
X570630Y74036D01*
X568164Y71570D01*
X564943Y70236D01*
X561457Y70236D01*
G37*
%LPD*%
%LPC*%
G36*
X536057Y70236D02*
X536057Y70236D01*
X532836Y71570D01*
X530370Y74036D01*
X529036Y77257D01*
X529036Y80743D01*
X530370Y83964D01*
X532836Y86430D01*
X536057Y87764D01*
X539543Y87764D01*
X542764Y86430D01*
X545230Y83964D01*
X546564Y80743D01*
X546564Y77257D01*
X545230Y74036D01*
X542764Y71570D01*
X539543Y70236D01*
X536057Y70236D01*
G37*
%LPD*%
%LPC*%
G36*
X557646Y246185D02*
X557646Y246185D01*
X554773Y247375D01*
X552575Y249573D01*
X551385Y252446D01*
X551385Y255554D01*
X552575Y258427D01*
X554773Y260625D01*
X557646Y261815D01*
X560754Y261815D01*
X563627Y260625D01*
X565825Y258427D01*
X567015Y255554D01*
X567015Y252446D01*
X565825Y249573D01*
X563627Y247375D01*
X560754Y246185D01*
X557646Y246185D01*
G37*
%LPD*%
%LPC*%
G36*
X301148Y111251D02*
X301148Y111251D01*
X299094Y112102D01*
X297522Y113674D01*
X296671Y115728D01*
X296671Y117952D01*
X297522Y120006D01*
X299094Y121578D01*
X301148Y122429D01*
X303372Y122429D01*
X305426Y121578D01*
X306998Y120006D01*
X307849Y117952D01*
X307849Y115728D01*
X306998Y113674D01*
X305426Y112102D01*
X303372Y111251D01*
X301148Y111251D01*
G37*
%LPD*%
%LPC*%
G36*
X494188Y413511D02*
X494188Y413511D01*
X492134Y414362D01*
X490562Y415934D01*
X489711Y417988D01*
X489711Y420212D01*
X490562Y422266D01*
X492134Y423838D01*
X494188Y424689D01*
X496412Y424689D01*
X498466Y423838D01*
X500038Y422266D01*
X500889Y420212D01*
X500889Y417988D01*
X500038Y415934D01*
X498466Y414362D01*
X496412Y413511D01*
X494188Y413511D01*
G37*
%LPD*%
%LPC*%
G36*
X290988Y388111D02*
X290988Y388111D01*
X288934Y388962D01*
X287362Y390534D01*
X286511Y392588D01*
X286511Y394812D01*
X287362Y396866D01*
X288934Y398438D01*
X290988Y399289D01*
X293212Y399289D01*
X295266Y398438D01*
X296838Y396866D01*
X297689Y394812D01*
X297689Y392588D01*
X296838Y390534D01*
X295266Y388962D01*
X293212Y388111D01*
X290988Y388111D01*
G37*
%LPD*%
%LPC*%
G36*
X633888Y235711D02*
X633888Y235711D01*
X631834Y236562D01*
X630262Y238134D01*
X629411Y240188D01*
X629411Y242412D01*
X630262Y244466D01*
X631834Y246038D01*
X633888Y246889D01*
X636112Y246889D01*
X638166Y246038D01*
X639738Y244466D01*
X640589Y242412D01*
X640589Y240188D01*
X639738Y238134D01*
X638166Y236562D01*
X636112Y235711D01*
X633888Y235711D01*
G37*
%LPD*%
%LPC*%
G36*
X316388Y96011D02*
X316388Y96011D01*
X314334Y96862D01*
X312762Y98434D01*
X311911Y100488D01*
X311911Y102712D01*
X312762Y104766D01*
X314334Y106338D01*
X316388Y107189D01*
X318612Y107189D01*
X320666Y106338D01*
X322238Y104766D01*
X323089Y102712D01*
X323089Y100488D01*
X322238Y98434D01*
X320666Y96862D01*
X318612Y96011D01*
X316388Y96011D01*
G37*
%LPD*%
%LPC*%
G36*
X506888Y426211D02*
X506888Y426211D01*
X504834Y427062D01*
X503262Y428634D01*
X502411Y430688D01*
X502411Y432912D01*
X503262Y434966D01*
X504834Y436538D01*
X506888Y437389D01*
X509112Y437389D01*
X511166Y436538D01*
X512738Y434966D01*
X513589Y432912D01*
X513589Y430688D01*
X512738Y428634D01*
X511166Y427062D01*
X509112Y426211D01*
X506888Y426211D01*
G37*
%LPD*%
%LPC*%
G36*
X298608Y263651D02*
X298608Y263651D01*
X296554Y264502D01*
X294982Y266074D01*
X294131Y268128D01*
X294131Y270352D01*
X294982Y272406D01*
X296554Y273978D01*
X298608Y274829D01*
X300832Y274829D01*
X302886Y273978D01*
X304458Y272406D01*
X305309Y270352D01*
X305309Y268128D01*
X304458Y266074D01*
X302886Y264502D01*
X300832Y263651D01*
X298608Y263651D01*
G37*
%LPD*%
%LPC*%
G36*
X506888Y451611D02*
X506888Y451611D01*
X504834Y452462D01*
X503262Y454034D01*
X502411Y456088D01*
X502411Y458312D01*
X503262Y460366D01*
X504834Y461938D01*
X506888Y462789D01*
X509112Y462789D01*
X511166Y461938D01*
X512738Y460366D01*
X513589Y458312D01*
X513589Y456088D01*
X512738Y454034D01*
X511166Y452462D01*
X509112Y451611D01*
X506888Y451611D01*
G37*
%LPD*%
%LPC*%
G36*
X341788Y362711D02*
X341788Y362711D01*
X339734Y363562D01*
X338162Y365134D01*
X337311Y367188D01*
X337311Y369412D01*
X338162Y371466D01*
X339734Y373038D01*
X341788Y373889D01*
X344012Y373889D01*
X346066Y373038D01*
X347638Y371466D01*
X348489Y369412D01*
X348489Y367188D01*
X347638Y365134D01*
X346066Y363562D01*
X344012Y362711D01*
X341788Y362711D01*
G37*
%LPD*%
%LPC*%
G36*
X524668Y266191D02*
X524668Y266191D01*
X522614Y267042D01*
X521042Y268614D01*
X520191Y270668D01*
X520191Y272892D01*
X521042Y274946D01*
X522614Y276518D01*
X524668Y277369D01*
X526892Y277369D01*
X528946Y276518D01*
X530518Y274946D01*
X531369Y272892D01*
X531369Y270668D01*
X530518Y268614D01*
X528946Y267042D01*
X526892Y266191D01*
X524668Y266191D01*
G37*
%LPD*%
%LPC*%
G36*
X103123Y270763D02*
X103123Y270763D01*
X103123Y280926D01*
X104359Y280731D01*
X106122Y280158D01*
X107774Y279316D01*
X109275Y278226D01*
X110586Y276915D01*
X111676Y275414D01*
X112518Y273762D01*
X113091Y271999D01*
X113286Y270763D01*
X103123Y270763D01*
G37*
%LPD*%
%LPC*%
G36*
X103123Y267717D02*
X103123Y267717D01*
X113286Y267717D01*
X113091Y266481D01*
X112518Y264718D01*
X111676Y263066D01*
X110586Y261565D01*
X109275Y260254D01*
X107774Y259164D01*
X106122Y258322D01*
X104359Y257749D01*
X103123Y257554D01*
X103123Y267717D01*
G37*
%LPD*%
%LPC*%
G36*
X89914Y270763D02*
X89914Y270763D01*
X90109Y271999D01*
X90682Y273762D01*
X91524Y275414D01*
X92614Y276915D01*
X93925Y278226D01*
X95426Y279316D01*
X97078Y280158D01*
X98841Y280731D01*
X100077Y280926D01*
X100077Y270763D01*
X89914Y270763D01*
G37*
%LPD*%
%LPC*%
G36*
X98841Y257749D02*
X98841Y257749D01*
X97078Y258322D01*
X95426Y259164D01*
X93925Y260254D01*
X92614Y261565D01*
X91524Y263066D01*
X90682Y264718D01*
X90109Y266481D01*
X89914Y267717D01*
X100077Y267717D01*
X100077Y257554D01*
X98841Y257749D01*
G37*
%LPD*%
%LPC*%
G36*
X585723Y390623D02*
X585723Y390623D01*
X585723Y398525D01*
X586983Y398274D01*
X588719Y397555D01*
X590282Y396511D01*
X591611Y395182D01*
X592655Y393619D01*
X593374Y391883D01*
X593625Y390623D01*
X585723Y390623D01*
G37*
%LPD*%
%LPC*%
G36*
X585723Y387577D02*
X585723Y387577D01*
X593625Y387577D01*
X593374Y386317D01*
X592655Y384581D01*
X591611Y383018D01*
X590282Y381689D01*
X588719Y380645D01*
X586983Y379926D01*
X585723Y379675D01*
X585723Y387577D01*
G37*
%LPD*%
%LPC*%
G36*
X574775Y390623D02*
X574775Y390623D01*
X575026Y391883D01*
X575745Y393619D01*
X576789Y395182D01*
X578118Y396511D01*
X579681Y397555D01*
X581417Y398274D01*
X582677Y398525D01*
X582677Y390623D01*
X574775Y390623D01*
G37*
%LPD*%
%LPC*%
G36*
X581417Y379926D02*
X581417Y379926D01*
X579681Y380645D01*
X578118Y381689D01*
X576789Y383018D01*
X575745Y384581D01*
X575026Y386317D01*
X574775Y387577D01*
X582677Y387577D01*
X582677Y379675D01*
X581417Y379926D01*
G37*
%LPD*%
%LPC*%
G36*
X434099Y395999D02*
X434099Y395999D01*
X434099Y402399D01*
X434420Y402336D01*
X436054Y401659D01*
X437525Y400676D01*
X438776Y399425D01*
X439759Y397954D01*
X440436Y396320D01*
X440499Y395999D01*
X434099Y395999D01*
G37*
%LPD*%
%LPC*%
G36*
X434099Y391401D02*
X434099Y391401D01*
X440499Y391401D01*
X440436Y391080D01*
X439759Y389446D01*
X438776Y387975D01*
X437525Y386724D01*
X436054Y385741D01*
X434420Y385064D01*
X434099Y385001D01*
X434099Y391401D01*
G37*
%LPD*%
%LPC*%
G36*
X423101Y395999D02*
X423101Y395999D01*
X423164Y396320D01*
X423841Y397954D01*
X424824Y399425D01*
X426075Y400676D01*
X427546Y401659D01*
X429180Y402336D01*
X429501Y402399D01*
X429501Y395999D01*
X423101Y395999D01*
G37*
%LPD*%
%LPC*%
G36*
X429180Y385064D02*
X429180Y385064D01*
X427546Y385741D01*
X426075Y386724D01*
X424824Y387975D01*
X423841Y389446D01*
X423164Y391080D01*
X423101Y391401D01*
X429501Y391401D01*
X429501Y385001D01*
X429180Y385064D01*
G37*
%LPD*%
%LPC*%
G36*
X565422Y335222D02*
X565422Y335222D01*
X565422Y341493D01*
X565756Y341427D01*
X567351Y340766D01*
X568787Y339807D01*
X570007Y338587D01*
X570966Y337151D01*
X571627Y335556D01*
X571693Y335222D01*
X565422Y335222D01*
G37*
%LPD*%
%LPC*%
G36*
X565422Y330778D02*
X565422Y330778D01*
X571693Y330778D01*
X571627Y330444D01*
X570966Y328849D01*
X570007Y327413D01*
X568787Y326193D01*
X567351Y325234D01*
X565756Y324573D01*
X565422Y324507D01*
X565422Y330778D01*
G37*
%LPD*%
%LPC*%
G36*
X554707Y335222D02*
X554707Y335222D01*
X554773Y335556D01*
X555434Y337151D01*
X556393Y338587D01*
X557613Y339807D01*
X559049Y340766D01*
X560644Y341427D01*
X560978Y341493D01*
X560978Y335222D01*
X554707Y335222D01*
G37*
%LPD*%
%LPC*%
G36*
X560644Y324573D02*
X560644Y324573D01*
X559049Y325234D01*
X557613Y326193D01*
X556393Y327413D01*
X555434Y328849D01*
X554773Y330444D01*
X554707Y330778D01*
X560978Y330778D01*
X560978Y324507D01*
X560644Y324573D01*
G37*
%LPD*%
%LPC*%
G36*
X610723Y255523D02*
X610723Y255523D01*
X610723Y261665D01*
X611479Y261514D01*
X612902Y260925D01*
X614182Y260070D01*
X615270Y258982D01*
X616125Y257702D01*
X616714Y256279D01*
X616865Y255523D01*
X610723Y255523D01*
G37*
%LPD*%
%LPC*%
G36*
X610723Y252477D02*
X610723Y252477D01*
X616865Y252477D01*
X616714Y251721D01*
X616125Y250298D01*
X615270Y249018D01*
X614182Y247930D01*
X612902Y247075D01*
X611479Y246486D01*
X610723Y246335D01*
X610723Y252477D01*
G37*
%LPD*%
%LPC*%
G36*
X601535Y255523D02*
X601535Y255523D01*
X601686Y256279D01*
X602275Y257702D01*
X603130Y258982D01*
X604218Y260070D01*
X605498Y260925D01*
X606921Y261514D01*
X607677Y261665D01*
X607677Y255523D01*
X601535Y255523D01*
G37*
%LPD*%
%LPC*%
G36*
X606921Y246486D02*
X606921Y246486D01*
X605498Y247075D01*
X604218Y247930D01*
X603130Y249018D01*
X602275Y250298D01*
X601686Y251721D01*
X601535Y252477D01*
X607677Y252477D01*
X607677Y246335D01*
X606921Y246486D01*
G37*
%LPD*%
%LPC*%
G36*
X584199Y389099D02*
X584199Y389099D01*
X584199Y389101D01*
X584201Y389101D01*
X584201Y389099D01*
X584199Y389099D01*
G37*
%LPD*%
%LPC*%
G36*
X609199Y253999D02*
X609199Y253999D01*
X609199Y254001D01*
X609201Y254001D01*
X609201Y253999D01*
X609199Y253999D01*
G37*
%LPD*%
%LPC*%
G36*
X101599Y269239D02*
X101599Y269239D01*
X101599Y269241D01*
X101601Y269241D01*
X101601Y269239D01*
X101599Y269239D01*
G37*
%LPD*%
D10*
X114300Y444500D03*
X165100Y444500D03*
X215900Y444500D03*
X266700Y444500D03*
D11*
X431800Y393700D03*
X406800Y393700D03*
X386800Y393700D03*
X361800Y393700D03*
D12*
X462500Y420800D03*
X331100Y420800D03*
D13*
X584200Y449100D03*
X584200Y389100D03*
X537200Y419100D03*
D14*
X279400Y269240D03*
X254000Y269240D03*
X228600Y269240D03*
X203200Y269240D03*
X177800Y269240D03*
X152400Y269240D03*
X127000Y269240D03*
X101600Y269240D03*
X101600Y116840D03*
X127000Y116840D03*
X152400Y116840D03*
X177800Y116840D03*
X203200Y116840D03*
X228600Y116840D03*
X254000Y116840D03*
X279400Y116840D03*
D15*
X563200Y333000D03*
X563200Y307600D03*
X537800Y333000D03*
X537800Y307600D03*
X512400Y333000D03*
X512400Y307600D03*
X487000Y333000D03*
X487000Y307600D03*
X461600Y333000D03*
X461600Y307600D03*
X436200Y333000D03*
X436200Y307600D03*
X410800Y333000D03*
X410800Y307600D03*
X385400Y333000D03*
X385400Y307600D03*
X360000Y333000D03*
X360000Y307600D03*
X334600Y333000D03*
X334600Y307600D03*
X309200Y333000D03*
X309200Y307600D03*
X283800Y333000D03*
X283800Y307600D03*
X258400Y333000D03*
X258400Y307600D03*
X233000Y333000D03*
X233000Y307600D03*
X207600Y333000D03*
X207600Y307600D03*
X182200Y333000D03*
X182200Y307600D03*
X156800Y333000D03*
X156800Y307600D03*
X131400Y333000D03*
X131400Y307600D03*
X563200Y79000D03*
X563200Y53600D03*
X537800Y79000D03*
X537800Y53600D03*
X512400Y79000D03*
X512400Y53600D03*
X487000Y79000D03*
X487000Y53600D03*
X461600Y79000D03*
X461600Y53600D03*
X436200Y79000D03*
X436200Y53600D03*
X410800Y79000D03*
X410800Y53600D03*
X385400Y79000D03*
X385400Y53600D03*
X360000Y79000D03*
X360000Y53600D03*
X334600Y79000D03*
X334600Y53600D03*
X309200Y79000D03*
X309200Y53600D03*
X283800Y79000D03*
X283800Y53600D03*
X258400Y79000D03*
X258400Y53600D03*
X233000Y79000D03*
X233000Y53600D03*
X207600Y79000D03*
X207600Y53600D03*
X182200Y79000D03*
X182200Y53600D03*
X156800Y79000D03*
X156800Y53600D03*
X131400Y79000D03*
X131400Y53600D03*
D16*
X609200Y254000D03*
X559200Y254000D03*
D17*
X38100Y38100D03*
X38100Y495300D03*
X660400Y495300D03*
X660400Y38100D03*
D18*
X495300Y419100D03*
X508000Y431800D03*
X508000Y457200D03*
X299720Y269240D03*
X302260Y116840D03*
X317500Y101600D03*
X525780Y271780D03*
X393700Y259080D03*
X635000Y241300D03*
X292100Y393700D03*
X342900Y368300D03*
X152400Y251460D03*
X538480Y231140D03*
X543560Y251460D03*
X411480Y215900D03*
X429260Y241300D03*
X508000Y254000D03*
X462280Y375920D03*
X579120Y332740D03*
X584200Y368300D03*
X111760Y243840D03*
X632460Y254000D03*
X538480Y185420D03*
X508000Y198120D03*
M02*
