G04 EAGLE Gerber RS-274X export*
G75*
%MOMM*%
%FSLAX34Y34*%
%LPD*%
%INTop Copper*%
%IPPOS*%
%AMOC8*
5,1,8,0,0,1.08239X$1,22.5*%
G01*
%ADD10R,1.540000X1.540000*%
%ADD11C,1.540000*%
%ADD12R,1.288000X1.288000*%
%ADD13C,1.288000*%
%ADD14C,3.220000*%
%ADD15C,1.400000*%
%ADD16C,1.848000*%
%ADD17R,1.524000X1.524000*%
%ADD18P,1.649562X8X202.500000*%
%ADD19R,1.100000X1.100000*%
%ADD20C,1.100000*%
%ADD21C,4.445000*%
%ADD22C,1.016000*%
%ADD23R,0.609600X0.508000*%
%ADD24C,0.381000*%
%ADD25C,0.609600*%
%ADD26C,0.254000*%

G36*
X695744Y526408D02*
X695744Y526408D01*
X695737Y526527D01*
X695724Y526565D01*
X695719Y526606D01*
X695676Y526716D01*
X695639Y526829D01*
X695617Y526864D01*
X695602Y526901D01*
X695533Y526997D01*
X695469Y527098D01*
X695439Y527126D01*
X695416Y527159D01*
X695324Y527235D01*
X695237Y527316D01*
X695202Y527336D01*
X695171Y527361D01*
X695063Y527412D01*
X694959Y527470D01*
X694919Y527480D01*
X694883Y527497D01*
X694766Y527519D01*
X694651Y527549D01*
X694591Y527553D01*
X694571Y527557D01*
X694550Y527555D01*
X694490Y527559D01*
X3810Y527559D01*
X3692Y527544D01*
X3573Y527537D01*
X3535Y527524D01*
X3494Y527519D01*
X3384Y527476D01*
X3271Y527439D01*
X3236Y527417D01*
X3199Y527402D01*
X3103Y527333D01*
X3002Y527269D01*
X2974Y527239D01*
X2941Y527216D01*
X2865Y527124D01*
X2784Y527037D01*
X2764Y527002D01*
X2739Y526971D01*
X2688Y526863D01*
X2630Y526759D01*
X2620Y526719D01*
X2603Y526683D01*
X2581Y526566D01*
X2551Y526451D01*
X2547Y526391D01*
X2543Y526371D01*
X2545Y526350D01*
X2541Y526290D01*
X2541Y3810D01*
X2556Y3692D01*
X2563Y3573D01*
X2576Y3535D01*
X2581Y3494D01*
X2624Y3384D01*
X2661Y3271D01*
X2683Y3236D01*
X2698Y3199D01*
X2767Y3103D01*
X2831Y3002D01*
X2861Y2974D01*
X2884Y2941D01*
X2976Y2865D01*
X3063Y2784D01*
X3098Y2764D01*
X3129Y2739D01*
X3237Y2688D01*
X3341Y2630D01*
X3381Y2620D01*
X3417Y2603D01*
X3534Y2581D01*
X3649Y2551D01*
X3709Y2547D01*
X3729Y2543D01*
X3750Y2545D01*
X3810Y2541D01*
X694490Y2541D01*
X694608Y2556D01*
X694727Y2563D01*
X694765Y2576D01*
X694806Y2581D01*
X694916Y2624D01*
X695029Y2661D01*
X695064Y2683D01*
X695101Y2698D01*
X695197Y2767D01*
X695298Y2831D01*
X695326Y2861D01*
X695359Y2884D01*
X695435Y2976D01*
X695516Y3063D01*
X695536Y3098D01*
X695561Y3129D01*
X695612Y3237D01*
X695670Y3341D01*
X695680Y3381D01*
X695697Y3417D01*
X695719Y3534D01*
X695749Y3649D01*
X695753Y3709D01*
X695757Y3729D01*
X695755Y3750D01*
X695759Y3810D01*
X695759Y526290D01*
X695744Y526408D01*
G37*
%LPC*%
G36*
X39355Y406834D02*
X39355Y406834D01*
X39349Y406946D01*
X39347Y406952D01*
X39347Y406959D01*
X39334Y406998D01*
X39329Y407038D01*
X39288Y407143D01*
X39255Y407250D01*
X39251Y407255D01*
X39249Y407262D01*
X39227Y407296D01*
X39212Y407334D01*
X39146Y407425D01*
X39087Y407520D01*
X39082Y407525D01*
X39079Y407530D01*
X39049Y407558D01*
X39026Y407591D01*
X38939Y407663D01*
X38858Y407740D01*
X38852Y407744D01*
X38847Y407748D01*
X38812Y407768D01*
X38781Y407794D01*
X38679Y407842D01*
X38581Y407897D01*
X38572Y407900D01*
X38569Y407902D01*
X38558Y407905D01*
X38512Y407920D01*
X38493Y407929D01*
X38475Y407933D01*
X38428Y407948D01*
X32568Y409519D01*
X28519Y413568D01*
X27036Y419100D01*
X28519Y424632D01*
X32568Y428681D01*
X38428Y430252D01*
X38532Y430294D01*
X38639Y430329D01*
X38674Y430350D01*
X38711Y430365D01*
X38717Y430369D01*
X38723Y430372D01*
X38813Y430439D01*
X38908Y430499D01*
X38936Y430528D01*
X38969Y430552D01*
X38973Y430557D01*
X38978Y430561D01*
X39049Y430648D01*
X39126Y430731D01*
X39146Y430766D01*
X39171Y430797D01*
X39174Y430803D01*
X39178Y430808D01*
X39225Y430910D01*
X39280Y431009D01*
X39290Y431048D01*
X39307Y431085D01*
X39308Y431092D01*
X39311Y431098D01*
X39331Y431208D01*
X39359Y431317D01*
X39363Y431377D01*
X39367Y431397D01*
X39366Y431404D01*
X39367Y431411D01*
X39366Y431429D01*
X39369Y431478D01*
X39369Y443974D01*
X89426Y494031D01*
X609074Y494031D01*
X659131Y443974D01*
X659131Y246688D01*
X659148Y246550D01*
X659161Y246412D01*
X659168Y246393D01*
X659171Y246373D01*
X659222Y246243D01*
X659269Y246112D01*
X659280Y246096D01*
X659288Y246077D01*
X659369Y245964D01*
X659447Y245849D01*
X659463Y245836D01*
X659474Y245820D01*
X659582Y245731D01*
X659686Y245639D01*
X659704Y245630D01*
X659719Y245617D01*
X659845Y245558D01*
X659969Y245494D01*
X659989Y245490D01*
X660007Y245481D01*
X660144Y245455D01*
X660279Y245425D01*
X660300Y245425D01*
X660320Y245421D01*
X660458Y245430D01*
X660597Y245434D01*
X660617Y245440D01*
X660637Y245441D01*
X660769Y245484D01*
X660903Y245523D01*
X660920Y245533D01*
X660939Y245539D01*
X661057Y245613D01*
X661177Y245684D01*
X661198Y245703D01*
X661208Y245709D01*
X661222Y245724D01*
X661298Y245791D01*
X661380Y245873D01*
X661959Y246208D01*
X662606Y246381D01*
X664719Y246381D01*
X664719Y241300D01*
X664719Y236219D01*
X662606Y236219D01*
X661959Y236392D01*
X661380Y236727D01*
X661298Y236809D01*
X661188Y236895D01*
X661081Y236983D01*
X661062Y236992D01*
X661046Y237004D01*
X660918Y237060D01*
X660793Y237119D01*
X660773Y237123D01*
X660754Y237131D01*
X660617Y237152D01*
X660481Y237179D01*
X660460Y237177D01*
X660440Y237180D01*
X660302Y237167D01*
X660163Y237159D01*
X660144Y237153D01*
X660124Y237151D01*
X659993Y237104D01*
X659861Y237061D01*
X659843Y237050D01*
X659824Y237043D01*
X659710Y236965D01*
X659592Y236891D01*
X659578Y236876D01*
X659561Y236865D01*
X659469Y236760D01*
X659374Y236659D01*
X659364Y236641D01*
X659351Y236626D01*
X659288Y236502D01*
X659220Y236381D01*
X659215Y236361D01*
X659206Y236343D01*
X659176Y236207D01*
X659141Y236073D01*
X659139Y236045D01*
X659137Y236033D01*
X659137Y236012D01*
X659131Y235912D01*
X659131Y113978D01*
X659145Y113866D01*
X659151Y113754D01*
X659165Y113709D01*
X659171Y113662D01*
X659212Y113558D01*
X659245Y113450D01*
X659270Y113410D01*
X659288Y113366D01*
X659354Y113276D01*
X659413Y113180D01*
X659447Y113147D01*
X659474Y113109D01*
X659561Y113037D01*
X659642Y112960D01*
X659683Y112936D01*
X659719Y112906D01*
X659821Y112858D01*
X659919Y112803D01*
X659988Y112780D01*
X660007Y112771D01*
X660025Y112767D01*
X660072Y112752D01*
X665932Y111181D01*
X669981Y107132D01*
X671464Y101600D01*
X669981Y96068D01*
X665932Y92019D01*
X660072Y90448D01*
X659967Y90406D01*
X659861Y90371D01*
X659821Y90346D01*
X659777Y90328D01*
X659687Y90261D01*
X659592Y90201D01*
X659560Y90167D01*
X659522Y90139D01*
X659451Y90051D01*
X659374Y89969D01*
X659351Y89928D01*
X659322Y89892D01*
X659275Y89789D01*
X659220Y89691D01*
X659209Y89645D01*
X659189Y89602D01*
X659169Y89492D01*
X659159Y89454D01*
X609074Y39369D01*
X102126Y39369D01*
X39349Y102146D01*
X39347Y102152D01*
X39347Y102159D01*
X39334Y102198D01*
X39329Y102238D01*
X39288Y102343D01*
X39255Y102450D01*
X39251Y102455D01*
X39249Y102462D01*
X39227Y102496D01*
X39212Y102534D01*
X39146Y102625D01*
X39087Y102720D01*
X39082Y102725D01*
X39079Y102730D01*
X39049Y102758D01*
X39026Y102791D01*
X38939Y102863D01*
X38858Y102940D01*
X38852Y102944D01*
X38847Y102948D01*
X38812Y102968D01*
X38781Y102994D01*
X38679Y103042D01*
X38581Y103097D01*
X38572Y103100D01*
X38569Y103102D01*
X38558Y103105D01*
X38512Y103120D01*
X38493Y103129D01*
X38475Y103133D01*
X38428Y103148D01*
X32568Y104719D01*
X28519Y108768D01*
X27036Y114300D01*
X28519Y119832D01*
X32568Y123881D01*
X38428Y125452D01*
X38532Y125494D01*
X38639Y125529D01*
X38674Y125550D01*
X38711Y125565D01*
X38717Y125569D01*
X38723Y125572D01*
X38813Y125639D01*
X38908Y125699D01*
X38936Y125728D01*
X38969Y125752D01*
X38973Y125757D01*
X38978Y125761D01*
X39049Y125848D01*
X39126Y125931D01*
X39146Y125966D01*
X39171Y125997D01*
X39174Y126003D01*
X39178Y126008D01*
X39225Y126110D01*
X39280Y126209D01*
X39290Y126248D01*
X39307Y126285D01*
X39308Y126292D01*
X39311Y126298D01*
X39331Y126408D01*
X39359Y126517D01*
X39363Y126577D01*
X39367Y126597D01*
X39366Y126604D01*
X39367Y126611D01*
X39366Y126629D01*
X39369Y126678D01*
X39369Y406722D01*
X39355Y406834D01*
G37*
%LPD*%
%LPC*%
G36*
X40639Y497839D02*
X40639Y497839D01*
X40639Y519936D01*
X42255Y519754D01*
X44967Y519135D01*
X47592Y518217D01*
X50099Y517010D01*
X52454Y515530D01*
X54629Y513795D01*
X56595Y511829D01*
X58330Y509654D01*
X59810Y507299D01*
X61017Y504792D01*
X61935Y502167D01*
X62554Y499455D01*
X62736Y497839D01*
X40639Y497839D01*
G37*
%LPD*%
%LPC*%
G36*
X40639Y40639D02*
X40639Y40639D01*
X40639Y62736D01*
X42255Y62554D01*
X44967Y61935D01*
X47592Y61017D01*
X50099Y59810D01*
X52454Y58330D01*
X54629Y56595D01*
X56595Y54629D01*
X58330Y52454D01*
X59810Y50099D01*
X61017Y47592D01*
X61935Y44967D01*
X62554Y42255D01*
X62736Y40639D01*
X40639Y40639D01*
G37*
%LPD*%
%LPC*%
G36*
X662939Y40639D02*
X662939Y40639D01*
X662939Y62736D01*
X664555Y62554D01*
X667267Y61935D01*
X669892Y61017D01*
X672399Y59810D01*
X674754Y58330D01*
X676929Y56595D01*
X678895Y54629D01*
X680630Y52454D01*
X682110Y50099D01*
X683317Y47592D01*
X684235Y44967D01*
X684854Y42255D01*
X685036Y40639D01*
X662939Y40639D01*
G37*
%LPD*%
%LPC*%
G36*
X662939Y497839D02*
X662939Y497839D01*
X662939Y519936D01*
X664555Y519754D01*
X667267Y519135D01*
X669892Y518217D01*
X672399Y517010D01*
X674754Y515530D01*
X676929Y513795D01*
X678895Y511829D01*
X680630Y509654D01*
X682110Y507299D01*
X683317Y504792D01*
X684235Y502167D01*
X684854Y499455D01*
X685036Y497839D01*
X662939Y497839D01*
G37*
%LPD*%
%LPC*%
G36*
X662939Y35561D02*
X662939Y35561D01*
X685036Y35561D01*
X684854Y33945D01*
X684235Y31233D01*
X683317Y28608D01*
X682110Y26101D01*
X680630Y23746D01*
X678895Y21571D01*
X676929Y19605D01*
X674754Y17870D01*
X672399Y16390D01*
X669892Y15183D01*
X667267Y14265D01*
X664555Y13646D01*
X662939Y13464D01*
X662939Y35561D01*
G37*
%LPD*%
%LPC*%
G36*
X40639Y35561D02*
X40639Y35561D01*
X62736Y35561D01*
X62554Y33945D01*
X61935Y31233D01*
X61017Y28608D01*
X59810Y26101D01*
X58330Y23746D01*
X56595Y21571D01*
X54629Y19605D01*
X52454Y17870D01*
X50099Y16390D01*
X47592Y15183D01*
X44967Y14265D01*
X42255Y13646D01*
X40639Y13464D01*
X40639Y35561D01*
G37*
%LPD*%
%LPC*%
G36*
X635764Y497839D02*
X635764Y497839D01*
X635946Y499455D01*
X636565Y502167D01*
X637483Y504792D01*
X638690Y507299D01*
X640170Y509654D01*
X641905Y511829D01*
X643871Y513795D01*
X646046Y515530D01*
X648401Y517010D01*
X650908Y518217D01*
X653533Y519135D01*
X656245Y519754D01*
X657861Y519936D01*
X657861Y497839D01*
X635764Y497839D01*
G37*
%LPD*%
%LPC*%
G36*
X635764Y40639D02*
X635764Y40639D01*
X635946Y42255D01*
X636565Y44967D01*
X637483Y47592D01*
X638690Y50099D01*
X640170Y52454D01*
X641905Y54629D01*
X643871Y56595D01*
X646046Y58330D01*
X648401Y59810D01*
X650908Y61017D01*
X653533Y61935D01*
X656245Y62554D01*
X657861Y62736D01*
X657861Y40639D01*
X635764Y40639D01*
G37*
%LPD*%
%LPC*%
G36*
X40639Y492761D02*
X40639Y492761D01*
X62736Y492761D01*
X62554Y491145D01*
X61935Y488433D01*
X61017Y485808D01*
X59810Y483301D01*
X58330Y480946D01*
X56595Y478771D01*
X54629Y476805D01*
X52454Y475070D01*
X50099Y473590D01*
X47592Y472383D01*
X44967Y471465D01*
X42255Y470846D01*
X40639Y470664D01*
X40639Y492761D01*
G37*
%LPD*%
%LPC*%
G36*
X13464Y40639D02*
X13464Y40639D01*
X13646Y42255D01*
X14265Y44967D01*
X15183Y47592D01*
X16390Y50099D01*
X17870Y52454D01*
X19605Y54629D01*
X21571Y56595D01*
X23746Y58330D01*
X26101Y59810D01*
X28608Y61017D01*
X31233Y61935D01*
X33945Y62554D01*
X35561Y62736D01*
X35561Y40639D01*
X13464Y40639D01*
G37*
%LPD*%
%LPC*%
G36*
X13464Y497839D02*
X13464Y497839D01*
X13646Y499455D01*
X14265Y502167D01*
X15183Y504792D01*
X16390Y507299D01*
X17870Y509654D01*
X19605Y511829D01*
X21571Y513795D01*
X23746Y515530D01*
X26101Y517010D01*
X28608Y518217D01*
X31233Y519135D01*
X33945Y519754D01*
X35561Y519936D01*
X35561Y497839D01*
X13464Y497839D01*
G37*
%LPD*%
%LPC*%
G36*
X662939Y492761D02*
X662939Y492761D01*
X685036Y492761D01*
X684854Y491145D01*
X684235Y488433D01*
X683317Y485808D01*
X682110Y483301D01*
X680630Y480946D01*
X678895Y478771D01*
X676929Y476805D01*
X674754Y475070D01*
X672399Y473590D01*
X669892Y472383D01*
X667267Y471465D01*
X664555Y470846D01*
X662939Y470664D01*
X662939Y492761D01*
G37*
%LPD*%
%LPC*%
G36*
X33945Y13646D02*
X33945Y13646D01*
X31233Y14265D01*
X28608Y15183D01*
X26101Y16390D01*
X23746Y17870D01*
X21571Y19605D01*
X19605Y21571D01*
X17870Y23746D01*
X16390Y26101D01*
X15183Y28608D01*
X14265Y31233D01*
X13646Y33945D01*
X13464Y35561D01*
X35561Y35561D01*
X35561Y13464D01*
X33945Y13646D01*
G37*
%LPD*%
%LPC*%
G36*
X33945Y470846D02*
X33945Y470846D01*
X31233Y471465D01*
X28608Y472383D01*
X26101Y473590D01*
X23746Y475070D01*
X21571Y476805D01*
X19605Y478771D01*
X17870Y480946D01*
X16390Y483301D01*
X15183Y485808D01*
X14265Y488433D01*
X13646Y491145D01*
X13464Y492761D01*
X35561Y492761D01*
X35561Y470664D01*
X33945Y470846D01*
G37*
%LPD*%
%LPC*%
G36*
X656245Y470846D02*
X656245Y470846D01*
X653533Y471465D01*
X650908Y472383D01*
X648401Y473590D01*
X646046Y475070D01*
X643871Y476805D01*
X641905Y478771D01*
X640170Y480946D01*
X638690Y483301D01*
X637483Y485808D01*
X636565Y488433D01*
X635946Y491145D01*
X635764Y492761D01*
X657861Y492761D01*
X657861Y470664D01*
X656245Y470846D01*
G37*
%LPD*%
%LPC*%
G36*
X656245Y13646D02*
X656245Y13646D01*
X653533Y14265D01*
X650908Y15183D01*
X648401Y16390D01*
X646046Y17870D01*
X643871Y19605D01*
X641905Y21571D01*
X640170Y23746D01*
X638690Y26101D01*
X637483Y28608D01*
X636565Y31233D01*
X635946Y33945D01*
X635764Y35561D01*
X657861Y35561D01*
X657861Y13464D01*
X656245Y13646D01*
G37*
%LPD*%
%LPC*%
G36*
X667257Y242569D02*
X667257Y242569D01*
X667257Y246381D01*
X669370Y246381D01*
X670017Y246208D01*
X670596Y245873D01*
X671069Y245400D01*
X671404Y244821D01*
X671577Y244174D01*
X671577Y242569D01*
X667257Y242569D01*
G37*
%LPD*%
%LPC*%
G36*
X667257Y236219D02*
X667257Y236219D01*
X667257Y240031D01*
X671577Y240031D01*
X671577Y238426D01*
X671404Y237779D01*
X671069Y237200D01*
X670596Y236727D01*
X670017Y236392D01*
X669370Y236219D01*
X667257Y236219D01*
G37*
%LPD*%
%LPC*%
G36*
X38099Y495299D02*
X38099Y495299D01*
X38099Y495301D01*
X38101Y495301D01*
X38101Y495299D01*
X38099Y495299D01*
G37*
%LPD*%
%LPC*%
G36*
X660399Y38099D02*
X660399Y38099D01*
X660399Y38101D01*
X660401Y38101D01*
X660401Y38099D01*
X660399Y38099D01*
G37*
%LPD*%
%LPC*%
G36*
X660399Y495299D02*
X660399Y495299D01*
X660399Y495301D01*
X660401Y495301D01*
X660401Y495299D01*
X660399Y495299D01*
G37*
%LPD*%
%LPC*%
G36*
X38099Y38099D02*
X38099Y38099D01*
X38099Y38101D01*
X38101Y38101D01*
X38101Y38099D01*
X38099Y38099D01*
G37*
%LPD*%
D10*
X114300Y444500D03*
D11*
X165100Y444500D03*
X215900Y444500D03*
X266700Y444500D03*
D12*
X431800Y393700D03*
D13*
X406800Y393700D03*
X386800Y393700D03*
X361800Y393700D03*
D14*
X462500Y420800D03*
X331100Y420800D03*
D15*
X577200Y449100D02*
X591200Y449100D01*
X591200Y389100D02*
X577200Y389100D01*
X537200Y412100D02*
X537200Y426100D01*
D16*
X279400Y269240D03*
X254000Y269240D03*
X228600Y269240D03*
X203200Y269240D03*
X177800Y269240D03*
X152400Y269240D03*
X127000Y269240D03*
X101600Y269240D03*
X101600Y116840D03*
X127000Y116840D03*
X152400Y116840D03*
X177800Y116840D03*
X203200Y116840D03*
X228600Y116840D03*
X254000Y116840D03*
X279400Y116840D03*
D17*
X563200Y333000D03*
D18*
X563200Y307600D03*
X537800Y333000D03*
X537800Y307600D03*
X512400Y333000D03*
X512400Y307600D03*
X487000Y333000D03*
X487000Y307600D03*
X461600Y333000D03*
X461600Y307600D03*
X436200Y333000D03*
X436200Y307600D03*
X410800Y333000D03*
X410800Y307600D03*
X385400Y333000D03*
X385400Y307600D03*
X360000Y333000D03*
X360000Y307600D03*
X334600Y333000D03*
X334600Y307600D03*
X309200Y333000D03*
X309200Y307600D03*
X283800Y333000D03*
X283800Y307600D03*
X258400Y333000D03*
X258400Y307600D03*
X233000Y333000D03*
X233000Y307600D03*
X207600Y333000D03*
X207600Y307600D03*
X182200Y333000D03*
X182200Y307600D03*
X156800Y333000D03*
X156800Y307600D03*
X131400Y333000D03*
X131400Y307600D03*
D17*
X563200Y79000D03*
D18*
X563200Y53600D03*
X537800Y79000D03*
X537800Y53600D03*
X512400Y79000D03*
X512400Y53600D03*
X487000Y79000D03*
X487000Y53600D03*
X461600Y79000D03*
X461600Y53600D03*
X436200Y79000D03*
X436200Y53600D03*
X410800Y79000D03*
X410800Y53600D03*
X385400Y79000D03*
X385400Y53600D03*
X360000Y79000D03*
X360000Y53600D03*
X334600Y79000D03*
X334600Y53600D03*
X309200Y79000D03*
X309200Y53600D03*
X283800Y79000D03*
X283800Y53600D03*
X258400Y79000D03*
X258400Y53600D03*
X233000Y79000D03*
X233000Y53600D03*
X207600Y79000D03*
X207600Y53600D03*
X182200Y79000D03*
X182200Y53600D03*
X156800Y79000D03*
X156800Y53600D03*
X131400Y79000D03*
X131400Y53600D03*
D19*
X609200Y254000D03*
D20*
X559200Y254000D03*
D21*
X38100Y38100D03*
X38100Y495300D03*
X660400Y495300D03*
X660400Y38100D03*
D22*
X660400Y101600D03*
X38100Y114300D03*
X38100Y419100D03*
D23*
X665988Y241300D03*
X654812Y241300D03*
D24*
X493600Y420800D02*
X462500Y420800D01*
X493600Y420800D02*
X495300Y419100D01*
D25*
X495300Y419100D03*
D24*
X520700Y419100D02*
X537200Y419100D01*
X520700Y419100D02*
X508000Y431800D01*
D25*
X508000Y431800D03*
D24*
X516100Y449100D02*
X584200Y449100D01*
X516100Y449100D02*
X508000Y457200D01*
D25*
X508000Y457200D03*
X299720Y269240D03*
X302260Y116840D03*
X317500Y101600D03*
X525780Y271780D03*
X393700Y259080D03*
D24*
X635000Y241300D02*
X654812Y241300D01*
D25*
X635000Y241300D03*
D24*
X331100Y420800D02*
X304000Y393700D01*
X292100Y393700D01*
D25*
X292100Y393700D03*
D24*
X361800Y393700D02*
X361800Y387200D01*
X342900Y368300D01*
D25*
X342900Y368300D03*
X152400Y251460D03*
X538480Y231140D03*
X543560Y251460D03*
D26*
X283800Y302043D02*
X283800Y307600D01*
X311658Y178142D02*
X410800Y79000D01*
X311658Y274185D02*
X283800Y302043D01*
X311658Y274185D02*
X311658Y178142D01*
X292450Y263835D02*
X292450Y274646D01*
X284806Y282290D01*
X228600Y199985D02*
X228600Y116840D01*
X283710Y282290D02*
X284806Y282290D01*
X283710Y282290D02*
X258400Y307600D01*
X292450Y263835D02*
X228600Y199985D01*
X292450Y111435D02*
X284806Y103790D01*
X306578Y266399D02*
X306578Y272081D01*
X302561Y276098D01*
X269830Y312335D02*
X263135Y319030D01*
X253666Y319030D01*
X223195Y103790D02*
X284806Y103790D01*
X292450Y111435D02*
X292450Y252271D01*
X306578Y266399D01*
X302561Y276098D02*
X299138Y276098D01*
X269830Y305406D01*
X269830Y312335D01*
X242236Y307600D02*
X233000Y307600D01*
X242236Y307600D02*
X253666Y319030D01*
X210145Y116840D02*
X203200Y116840D01*
X210145Y116840D02*
X223195Y103790D01*
X461600Y333000D02*
X406800Y387800D01*
X406800Y393700D01*
X436200Y344300D02*
X436200Y333000D01*
X436200Y344300D02*
X386800Y393700D01*
X107006Y103790D02*
X96195Y103790D01*
X142830Y312335D02*
X136135Y319030D01*
X83470Y116515D02*
X96195Y103790D01*
X83470Y116515D02*
X83470Y276750D01*
X125750Y319030D01*
X136135Y319030D01*
X127000Y116840D02*
X120056Y116840D01*
X107006Y103790D01*
X142830Y305406D02*
X142830Y312335D01*
X142830Y305406D02*
X152066Y296170D01*
X196170Y296170D01*
X207600Y307600D01*
X136135Y344430D02*
X126666Y344430D01*
X136135Y344430D02*
X142830Y337735D01*
X78390Y114410D02*
X94090Y98710D01*
X142830Y330806D02*
X142830Y337735D01*
X142830Y330806D02*
X154606Y319030D01*
X161535Y319030D01*
X172965Y307600D02*
X182200Y307600D01*
X172965Y307600D02*
X161535Y319030D01*
X127326Y98710D02*
X94090Y98710D01*
X78390Y114410D02*
X78390Y296155D01*
X126666Y344430D01*
X145456Y116840D02*
X152400Y116840D01*
X145456Y116840D02*
X127326Y98710D01*
X106090Y282290D02*
X131400Y307600D01*
X106090Y282290D02*
X96195Y282290D01*
X88550Y274646D01*
X88550Y263835D01*
X101600Y250785D02*
X101600Y116840D01*
X101600Y250785D02*
X88550Y263835D01*
D25*
X411480Y215900D03*
X429260Y241300D03*
X508000Y254000D03*
D24*
X444500Y393700D02*
X431800Y393700D01*
X444500Y393700D02*
X462280Y375920D01*
D25*
X462280Y375920D03*
D24*
X563200Y333000D02*
X578860Y333000D01*
X579120Y332740D01*
D25*
X579120Y332740D03*
D24*
X584200Y368300D02*
X584200Y389100D01*
D25*
X584200Y368300D03*
X111760Y243840D03*
X632460Y254000D03*
X538480Y185420D03*
X508000Y198120D03*
D26*
X111760Y259080D02*
X101600Y269240D01*
X111760Y259080D02*
X111760Y243840D01*
M02*
