G04 EAGLE Gerber RS-274X export*
G75*
%MOMM*%
%FSLAX34Y34*%
%LPD*%
%INBottom Copper*%
%IPPOS*%
%AMOC8*
5,1,8,0,0,1.08239X$1,22.5*%
G01*
%ADD10R,1.270000X1.143000*%
%ADD11C,1.016000*%
%ADD12R,1.540000X1.540000*%
%ADD13C,1.540000*%
%ADD14R,1.288000X1.288000*%
%ADD15C,1.288000*%
%ADD16C,3.220000*%
%ADD17C,1.400000*%
%ADD18C,1.848000*%
%ADD19R,1.524000X1.524000*%
%ADD20P,1.649562X8X202.500000*%
%ADD21C,0.232500*%
%ADD22C,0.460000*%
%ADD23R,1.100000X1.100000*%
%ADD24C,1.100000*%
%ADD25C,4.445000*%
%ADD26C,0.609600*%
%ADD27C,0.381000*%
%ADD28C,0.254000*%


D10*
X538480Y199390D03*
X538480Y217170D03*
X411480Y229870D03*
X411480Y247650D03*
D11*
X660400Y101600D03*
X38100Y419100D03*
D12*
X114300Y444500D03*
D13*
X165100Y444500D03*
X215900Y444500D03*
X266700Y444500D03*
D14*
X431800Y393700D03*
D15*
X406800Y393700D03*
X386800Y393700D03*
X361800Y393700D03*
D16*
X462500Y420800D03*
X331100Y420800D03*
D17*
X577200Y449100D02*
X591200Y449100D01*
X591200Y389100D02*
X577200Y389100D01*
X537200Y412100D02*
X537200Y426100D01*
D18*
X279400Y269240D03*
X254000Y269240D03*
X228600Y269240D03*
X203200Y269240D03*
X177800Y269240D03*
X152400Y269240D03*
X127000Y269240D03*
X101600Y269240D03*
X101600Y116840D03*
X127000Y116840D03*
X152400Y116840D03*
X177800Y116840D03*
X203200Y116840D03*
X228600Y116840D03*
X254000Y116840D03*
X279400Y116840D03*
D19*
X563200Y333000D03*
D20*
X563200Y307600D03*
X537800Y333000D03*
X537800Y307600D03*
X512400Y333000D03*
X512400Y307600D03*
X487000Y333000D03*
X487000Y307600D03*
X461600Y333000D03*
X461600Y307600D03*
X436200Y333000D03*
X436200Y307600D03*
X410800Y333000D03*
X410800Y307600D03*
X385400Y333000D03*
X385400Y307600D03*
X360000Y333000D03*
X360000Y307600D03*
X334600Y333000D03*
X334600Y307600D03*
X309200Y333000D03*
X309200Y307600D03*
X283800Y333000D03*
X283800Y307600D03*
X258400Y333000D03*
X258400Y307600D03*
X233000Y333000D03*
X233000Y307600D03*
X207600Y333000D03*
X207600Y307600D03*
X182200Y333000D03*
X182200Y307600D03*
X156800Y333000D03*
X156800Y307600D03*
X131400Y333000D03*
X131400Y307600D03*
D19*
X563200Y79000D03*
D20*
X563200Y53600D03*
X537800Y79000D03*
X537800Y53600D03*
X512400Y79000D03*
X512400Y53600D03*
X487000Y79000D03*
X487000Y53600D03*
X461600Y79000D03*
X461600Y53600D03*
X436200Y79000D03*
X436200Y53600D03*
X410800Y79000D03*
X410800Y53600D03*
X385400Y79000D03*
X385400Y53600D03*
X360000Y79000D03*
X360000Y53600D03*
X334600Y79000D03*
X334600Y53600D03*
X309200Y79000D03*
X309200Y53600D03*
X283800Y79000D03*
X283800Y53600D03*
X258400Y79000D03*
X258400Y53600D03*
X233000Y79000D03*
X233000Y53600D03*
X207600Y79000D03*
X207600Y53600D03*
X182200Y79000D03*
X182200Y53600D03*
X156800Y79000D03*
X156800Y53600D03*
X131400Y79000D03*
X131400Y53600D03*
D21*
X500332Y267788D02*
X516408Y267788D01*
X516408Y260812D01*
X500332Y260812D01*
X500332Y267788D01*
X500332Y263021D02*
X516408Y263021D01*
X516408Y265230D02*
X500332Y265230D01*
X500332Y267439D02*
X516408Y267439D01*
X516408Y244788D02*
X500332Y244788D01*
X516408Y244788D02*
X516408Y237812D01*
X500332Y237812D01*
X500332Y244788D01*
X500332Y240021D02*
X516408Y240021D01*
X516408Y242230D02*
X500332Y242230D01*
X500332Y244439D02*
X516408Y244439D01*
X516408Y221788D02*
X500332Y221788D01*
X516408Y221788D02*
X516408Y214812D01*
X500332Y214812D01*
X500332Y221788D01*
X500332Y217021D02*
X516408Y217021D01*
X516408Y219230D02*
X500332Y219230D01*
X500332Y221439D02*
X516408Y221439D01*
D22*
X453570Y254950D02*
X439770Y254950D01*
X453570Y254950D02*
X453570Y227650D01*
X439770Y227650D01*
X439770Y254950D01*
X439770Y232020D02*
X453570Y232020D01*
X453570Y236390D02*
X439770Y236390D01*
X439770Y240760D02*
X453570Y240760D01*
X453570Y245130D02*
X439770Y245130D01*
X439770Y249500D02*
X453570Y249500D01*
X453570Y253870D02*
X439770Y253870D01*
D23*
X609200Y254000D03*
D24*
X559200Y254000D03*
D25*
X38100Y38100D03*
X38100Y495300D03*
X660400Y495300D03*
X660400Y38100D03*
D11*
X38100Y114300D03*
D26*
X495300Y419100D03*
X508000Y431800D03*
X508000Y457200D03*
D27*
X299720Y269240D02*
X279400Y269240D01*
D26*
X299720Y269240D03*
D27*
X302260Y116840D02*
X279400Y116840D01*
D26*
X302260Y116840D03*
D27*
X317500Y101600D02*
X317500Y87300D01*
X309200Y79000D01*
D26*
X317500Y101600D03*
X525780Y271780D03*
D27*
X411480Y247650D02*
X400050Y259080D01*
X393700Y259080D01*
D26*
X393700Y259080D03*
X635000Y241300D03*
X292100Y393700D03*
X342900Y368300D03*
D27*
X152400Y269240D02*
X152400Y251460D01*
D26*
X152400Y251460D03*
D27*
X538480Y231140D02*
X538480Y217170D01*
D26*
X538480Y231140D03*
D27*
X556660Y251460D02*
X559200Y254000D01*
X556660Y251460D02*
X543560Y251460D01*
D26*
X543560Y251460D03*
D27*
X515850Y271780D02*
X508370Y264300D01*
X515850Y271780D02*
X525780Y271780D01*
D28*
X177800Y269240D02*
X172720Y269240D01*
X170180Y271780D01*
X170180Y388620D01*
X114300Y444500D01*
X127000Y269240D02*
X127000Y261620D01*
X149860Y238760D01*
X317500Y238760D01*
X340360Y261620D01*
X364820Y261620D01*
X410800Y307600D01*
X203200Y269240D02*
X193630Y278810D01*
X193630Y377870D01*
X165100Y406400D02*
X165100Y444500D01*
X165100Y406400D02*
X193630Y377870D01*
X503165Y307600D02*
X512400Y307600D01*
X503165Y307600D02*
X491735Y296170D01*
X298909Y103790D02*
X197795Y103790D01*
X298909Y103790D02*
X309118Y113999D01*
X309118Y184197D01*
X421091Y296170D01*
X491735Y296170D01*
X184745Y116840D02*
X177800Y116840D01*
X184745Y116840D02*
X197795Y103790D01*
X88550Y274646D02*
X96195Y282290D01*
X88550Y274646D02*
X88550Y263835D01*
X96195Y256190D01*
X156800Y323765D02*
X156800Y333000D01*
X156800Y323765D02*
X145370Y312335D01*
X114650Y256190D02*
X96195Y256190D01*
X114650Y256190D02*
X254000Y116840D01*
X145370Y305406D02*
X145370Y312335D01*
X145370Y305406D02*
X122255Y282290D01*
X96195Y282290D01*
D27*
X411480Y229870D02*
X411480Y215900D01*
D26*
X411480Y215900D03*
D27*
X429260Y241300D02*
X446670Y241300D01*
D26*
X429260Y241300D03*
X508000Y254000D03*
X462280Y375920D03*
X579120Y332740D03*
D27*
X508000Y241670D02*
X508370Y241300D01*
X508000Y241670D02*
X508000Y254000D01*
D26*
X584200Y368300D03*
X111760Y243840D03*
D27*
X609200Y254000D02*
X632460Y254000D01*
D26*
X632460Y254000D03*
D27*
X538480Y199390D02*
X538480Y185420D01*
D26*
X538480Y185420D03*
D27*
X508370Y198490D02*
X508370Y218300D01*
X508370Y198490D02*
X508000Y198120D01*
D26*
X508000Y198120D03*
D28*
X228600Y269240D02*
X219030Y278810D01*
X215900Y381590D02*
X215900Y444500D01*
X215900Y381590D02*
X219030Y378460D01*
X219030Y278810D01*
X244430Y278810D02*
X244430Y422230D01*
X244430Y278810D02*
X254000Y269240D01*
X244430Y422230D02*
X266700Y444500D01*
M02*
