G04 EAGLE Gerber RS-274X export*
G75*
%MOMM*%
%FSLAX34Y34*%
%LPD*%
%INSilkscreen Bottom*%
%IPPOS*%
%AMOC8*
5,1,8,0,0,1.08239X$1,22.5*%
G01*
%ADD10C,0.025400*%
%ADD11C,0.127000*%
%ADD12C,0.200000*%
%ADD13C,0.101600*%


D10*
X548767Y193421D02*
X548767Y192913D01*
X548769Y192869D01*
X548775Y192825D01*
X548784Y192782D01*
X548798Y192739D01*
X548815Y192698D01*
X548835Y192659D01*
X548859Y192622D01*
X548886Y192586D01*
X548916Y192554D01*
X548948Y192524D01*
X548984Y192497D01*
X549021Y192473D01*
X549060Y192453D01*
X549101Y192436D01*
X549144Y192422D01*
X549187Y192413D01*
X549231Y192407D01*
X549275Y192405D01*
X550545Y192405D01*
X550589Y192407D01*
X550633Y192413D01*
X550676Y192422D01*
X550719Y192436D01*
X550760Y192453D01*
X550799Y192473D01*
X550836Y192497D01*
X550872Y192524D01*
X550904Y192554D01*
X550934Y192586D01*
X550961Y192622D01*
X550985Y192659D01*
X551005Y192698D01*
X551022Y192739D01*
X551036Y192782D01*
X551045Y192825D01*
X551051Y192869D01*
X551053Y192913D01*
X551053Y193421D01*
X550545Y194317D02*
X551053Y194952D01*
X548767Y194952D01*
X548767Y194317D02*
X548767Y195587D01*
X549910Y196603D02*
X549995Y196605D01*
X550081Y196611D01*
X550166Y196620D01*
X550250Y196634D01*
X550334Y196651D01*
X550416Y196672D01*
X550498Y196697D01*
X550579Y196726D01*
X550658Y196758D01*
X550736Y196794D01*
X550735Y196793D02*
X550774Y196809D01*
X550811Y196827D01*
X550847Y196849D01*
X550880Y196874D01*
X550911Y196902D01*
X550940Y196932D01*
X550965Y196965D01*
X550988Y197000D01*
X551008Y197037D01*
X551024Y197075D01*
X551036Y197115D01*
X551046Y197155D01*
X551051Y197196D01*
X551053Y197238D01*
X551051Y197280D01*
X551046Y197321D01*
X551036Y197361D01*
X551024Y197401D01*
X551008Y197439D01*
X550988Y197476D01*
X550965Y197511D01*
X550940Y197544D01*
X550911Y197574D01*
X550880Y197602D01*
X550847Y197627D01*
X550811Y197649D01*
X550774Y197667D01*
X550735Y197683D01*
X550736Y197683D02*
X550658Y197719D01*
X550579Y197751D01*
X550498Y197780D01*
X550416Y197805D01*
X550334Y197826D01*
X550250Y197843D01*
X550166Y197857D01*
X550081Y197866D01*
X549995Y197872D01*
X549910Y197874D01*
X549910Y196603D02*
X549825Y196605D01*
X549739Y196611D01*
X549654Y196620D01*
X549570Y196634D01*
X549486Y196651D01*
X549404Y196672D01*
X549322Y196697D01*
X549241Y196726D01*
X549162Y196758D01*
X549084Y196794D01*
X549085Y196793D02*
X549046Y196809D01*
X549009Y196827D01*
X548973Y196849D01*
X548940Y196874D01*
X548909Y196902D01*
X548880Y196932D01*
X548855Y196965D01*
X548832Y197000D01*
X548812Y197037D01*
X548796Y197075D01*
X548784Y197115D01*
X548774Y197155D01*
X548769Y197196D01*
X548767Y197238D01*
X549084Y197683D02*
X549162Y197719D01*
X549241Y197751D01*
X549322Y197780D01*
X549404Y197805D01*
X549486Y197826D01*
X549570Y197843D01*
X549654Y197857D01*
X549739Y197866D01*
X549825Y197872D01*
X549910Y197874D01*
X549085Y197683D02*
X549046Y197667D01*
X549009Y197649D01*
X548973Y197627D01*
X548940Y197602D01*
X548909Y197574D01*
X548880Y197544D01*
X548855Y197511D01*
X548832Y197476D01*
X548812Y197439D01*
X548796Y197401D01*
X548784Y197361D01*
X548774Y197321D01*
X548769Y197280D01*
X548767Y197238D01*
X549275Y196730D02*
X550545Y197746D01*
X548513Y198788D02*
X548513Y199804D01*
X548767Y200591D02*
X551053Y201353D01*
X548767Y202115D01*
X549339Y201925D02*
X549339Y200782D01*
X421767Y223393D02*
X421767Y223901D01*
X421767Y223393D02*
X421769Y223349D01*
X421775Y223305D01*
X421784Y223262D01*
X421798Y223219D01*
X421815Y223178D01*
X421835Y223139D01*
X421859Y223102D01*
X421886Y223066D01*
X421916Y223034D01*
X421948Y223004D01*
X421984Y222977D01*
X422021Y222953D01*
X422060Y222933D01*
X422101Y222916D01*
X422144Y222902D01*
X422187Y222893D01*
X422231Y222887D01*
X422275Y222885D01*
X423545Y222885D01*
X423589Y222887D01*
X423633Y222893D01*
X423676Y222902D01*
X423719Y222916D01*
X423760Y222933D01*
X423799Y222953D01*
X423836Y222977D01*
X423872Y223004D01*
X423904Y223034D01*
X423934Y223066D01*
X423961Y223102D01*
X423985Y223139D01*
X424005Y223178D01*
X424022Y223219D01*
X424036Y223262D01*
X424045Y223305D01*
X424051Y223349D01*
X424053Y223393D01*
X424053Y223901D01*
X423545Y224797D02*
X424053Y225432D01*
X421767Y225432D01*
X421767Y224797D02*
X421767Y226067D01*
X422910Y227083D02*
X422995Y227085D01*
X423081Y227091D01*
X423166Y227100D01*
X423250Y227114D01*
X423334Y227131D01*
X423416Y227152D01*
X423498Y227177D01*
X423579Y227206D01*
X423658Y227238D01*
X423736Y227274D01*
X423735Y227273D02*
X423774Y227289D01*
X423811Y227307D01*
X423847Y227329D01*
X423880Y227354D01*
X423911Y227382D01*
X423940Y227412D01*
X423965Y227445D01*
X423988Y227480D01*
X424008Y227517D01*
X424024Y227555D01*
X424036Y227595D01*
X424046Y227635D01*
X424051Y227676D01*
X424053Y227718D01*
X424051Y227760D01*
X424046Y227801D01*
X424036Y227841D01*
X424024Y227881D01*
X424008Y227919D01*
X423988Y227956D01*
X423965Y227991D01*
X423940Y228024D01*
X423911Y228054D01*
X423880Y228082D01*
X423847Y228107D01*
X423811Y228129D01*
X423774Y228147D01*
X423735Y228163D01*
X423736Y228163D02*
X423658Y228199D01*
X423579Y228231D01*
X423498Y228260D01*
X423416Y228285D01*
X423334Y228306D01*
X423250Y228323D01*
X423166Y228337D01*
X423081Y228346D01*
X422995Y228352D01*
X422910Y228354D01*
X422910Y227083D02*
X422825Y227085D01*
X422739Y227091D01*
X422654Y227100D01*
X422570Y227114D01*
X422486Y227131D01*
X422404Y227152D01*
X422322Y227177D01*
X422241Y227206D01*
X422162Y227238D01*
X422084Y227274D01*
X422085Y227273D02*
X422046Y227289D01*
X422009Y227307D01*
X421973Y227329D01*
X421940Y227354D01*
X421909Y227382D01*
X421880Y227412D01*
X421855Y227445D01*
X421832Y227480D01*
X421812Y227517D01*
X421796Y227555D01*
X421784Y227595D01*
X421774Y227635D01*
X421769Y227676D01*
X421767Y227718D01*
X422084Y228163D02*
X422162Y228199D01*
X422241Y228231D01*
X422322Y228260D01*
X422404Y228285D01*
X422486Y228306D01*
X422570Y228323D01*
X422654Y228337D01*
X422739Y228346D01*
X422825Y228352D01*
X422910Y228354D01*
X422085Y228163D02*
X422046Y228147D01*
X422009Y228129D01*
X421973Y228107D01*
X421940Y228082D01*
X421909Y228054D01*
X421880Y228024D01*
X421855Y227991D01*
X421832Y227956D01*
X421812Y227919D01*
X421796Y227881D01*
X421784Y227841D01*
X421774Y227801D01*
X421769Y227760D01*
X421767Y227718D01*
X422275Y227210D02*
X423545Y228226D01*
X421513Y229268D02*
X421513Y230284D01*
X423037Y231312D02*
X423037Y231947D01*
X423035Y231996D01*
X423030Y232044D01*
X423020Y232092D01*
X423007Y232139D01*
X422991Y232184D01*
X422971Y232229D01*
X422948Y232271D01*
X422921Y232312D01*
X422892Y232351D01*
X422860Y232387D01*
X422824Y232421D01*
X422787Y232452D01*
X422747Y232480D01*
X422705Y232505D01*
X422662Y232526D01*
X422617Y232545D01*
X422570Y232559D01*
X422523Y232570D01*
X422475Y232578D01*
X422426Y232582D01*
X422378Y232582D01*
X422329Y232578D01*
X422281Y232570D01*
X422234Y232559D01*
X422187Y232545D01*
X422142Y232526D01*
X422099Y232505D01*
X422057Y232480D01*
X422017Y232452D01*
X421980Y232421D01*
X421944Y232387D01*
X421912Y232351D01*
X421883Y232312D01*
X421856Y232271D01*
X421833Y232229D01*
X421813Y232184D01*
X421797Y232139D01*
X421784Y232092D01*
X421774Y232044D01*
X421769Y231996D01*
X421767Y231947D01*
X421767Y231312D01*
X424053Y231312D01*
X424053Y231947D01*
X424051Y231991D01*
X424045Y232035D01*
X424036Y232078D01*
X424022Y232121D01*
X424005Y232162D01*
X423985Y232201D01*
X423961Y232238D01*
X423934Y232274D01*
X423904Y232306D01*
X423872Y232336D01*
X423836Y232363D01*
X423799Y232387D01*
X423760Y232407D01*
X423719Y232424D01*
X423676Y232438D01*
X423633Y232447D01*
X423589Y232453D01*
X423545Y232455D01*
X423501Y232453D01*
X423457Y232447D01*
X423414Y232438D01*
X423371Y232424D01*
X423330Y232407D01*
X423291Y232387D01*
X423254Y232363D01*
X423218Y232336D01*
X423186Y232306D01*
X423156Y232274D01*
X423129Y232238D01*
X423105Y232201D01*
X423085Y232162D01*
X423068Y232121D01*
X423054Y232078D01*
X423045Y232035D01*
X423039Y231991D01*
X423037Y231947D01*
D11*
X292100Y294640D02*
X88900Y294640D01*
X88900Y91440D02*
X292100Y91440D01*
D12*
X82218Y269240D02*
X82220Y269303D01*
X82226Y269365D01*
X82236Y269427D01*
X82249Y269489D01*
X82267Y269549D01*
X82288Y269608D01*
X82313Y269666D01*
X82342Y269722D01*
X82374Y269776D01*
X82409Y269828D01*
X82447Y269877D01*
X82489Y269925D01*
X82533Y269969D01*
X82581Y270011D01*
X82630Y270049D01*
X82682Y270084D01*
X82736Y270116D01*
X82792Y270145D01*
X82850Y270170D01*
X82909Y270191D01*
X82969Y270209D01*
X83031Y270222D01*
X83093Y270232D01*
X83155Y270238D01*
X83218Y270240D01*
X83281Y270238D01*
X83343Y270232D01*
X83405Y270222D01*
X83467Y270209D01*
X83527Y270191D01*
X83586Y270170D01*
X83644Y270145D01*
X83700Y270116D01*
X83754Y270084D01*
X83806Y270049D01*
X83855Y270011D01*
X83903Y269969D01*
X83947Y269925D01*
X83989Y269877D01*
X84027Y269828D01*
X84062Y269776D01*
X84094Y269722D01*
X84123Y269666D01*
X84148Y269608D01*
X84169Y269549D01*
X84187Y269489D01*
X84200Y269427D01*
X84210Y269365D01*
X84216Y269303D01*
X84218Y269240D01*
X84216Y269177D01*
X84210Y269115D01*
X84200Y269053D01*
X84187Y268991D01*
X84169Y268931D01*
X84148Y268872D01*
X84123Y268814D01*
X84094Y268758D01*
X84062Y268704D01*
X84027Y268652D01*
X83989Y268603D01*
X83947Y268555D01*
X83903Y268511D01*
X83855Y268469D01*
X83806Y268431D01*
X83754Y268396D01*
X83700Y268364D01*
X83644Y268335D01*
X83586Y268310D01*
X83527Y268289D01*
X83467Y268271D01*
X83405Y268258D01*
X83343Y268248D01*
X83281Y268242D01*
X83218Y268240D01*
X83155Y268242D01*
X83093Y268248D01*
X83031Y268258D01*
X82969Y268271D01*
X82909Y268289D01*
X82850Y268310D01*
X82792Y268335D01*
X82736Y268364D01*
X82682Y268396D01*
X82630Y268431D01*
X82581Y268469D01*
X82533Y268511D01*
X82489Y268555D01*
X82447Y268603D01*
X82409Y268652D01*
X82374Y268704D01*
X82342Y268758D01*
X82313Y268814D01*
X82288Y268872D01*
X82267Y268931D01*
X82249Y268991D01*
X82236Y269053D01*
X82226Y269115D01*
X82220Y269177D01*
X82218Y269240D01*
D11*
X292100Y258040D02*
X292100Y128040D01*
X88900Y128040D02*
X88900Y258040D01*
X88900Y281940D02*
X88900Y294640D01*
X88900Y104140D02*
X88900Y91440D01*
X292100Y281940D02*
X292100Y294640D01*
X292100Y104140D02*
X292100Y91440D01*
D13*
X80210Y261312D02*
X71772Y261312D01*
X71772Y261311D02*
X71659Y261313D01*
X71546Y261319D01*
X71433Y261329D01*
X71320Y261343D01*
X71208Y261360D01*
X71097Y261382D01*
X70987Y261407D01*
X70877Y261437D01*
X70769Y261470D01*
X70662Y261507D01*
X70556Y261547D01*
X70452Y261592D01*
X70349Y261640D01*
X70248Y261691D01*
X70149Y261746D01*
X70052Y261804D01*
X69957Y261866D01*
X69864Y261931D01*
X69774Y261999D01*
X69686Y262070D01*
X69600Y262145D01*
X69517Y262222D01*
X69437Y262302D01*
X69360Y262385D01*
X69285Y262471D01*
X69214Y262559D01*
X69146Y262649D01*
X69081Y262742D01*
X69019Y262837D01*
X68961Y262934D01*
X68906Y263033D01*
X68855Y263134D01*
X68807Y263237D01*
X68762Y263341D01*
X68722Y263447D01*
X68685Y263554D01*
X68652Y263662D01*
X68622Y263772D01*
X68597Y263882D01*
X68575Y263993D01*
X68558Y264105D01*
X68544Y264218D01*
X68534Y264331D01*
X68528Y264444D01*
X68526Y264557D01*
X68528Y264670D01*
X68534Y264783D01*
X68544Y264896D01*
X68558Y265009D01*
X68575Y265121D01*
X68597Y265232D01*
X68622Y265342D01*
X68652Y265452D01*
X68685Y265560D01*
X68722Y265667D01*
X68762Y265773D01*
X68807Y265877D01*
X68855Y265980D01*
X68906Y266081D01*
X68961Y266180D01*
X69019Y266277D01*
X69081Y266372D01*
X69146Y266465D01*
X69214Y266555D01*
X69285Y266643D01*
X69360Y266729D01*
X69437Y266812D01*
X69517Y266892D01*
X69600Y266969D01*
X69686Y267044D01*
X69774Y267115D01*
X69864Y267183D01*
X69957Y267248D01*
X70052Y267310D01*
X70149Y267368D01*
X70248Y267423D01*
X70349Y267474D01*
X70452Y267522D01*
X70556Y267567D01*
X70662Y267607D01*
X70769Y267644D01*
X70877Y267677D01*
X70987Y267707D01*
X71097Y267732D01*
X71208Y267754D01*
X71320Y267771D01*
X71433Y267785D01*
X71546Y267795D01*
X71659Y267801D01*
X71772Y267803D01*
X80210Y267803D01*
X80210Y276693D02*
X80208Y276800D01*
X80202Y276906D01*
X80192Y277012D01*
X80179Y277118D01*
X80161Y277224D01*
X80140Y277328D01*
X80115Y277432D01*
X80086Y277535D01*
X80054Y277636D01*
X80017Y277736D01*
X79977Y277835D01*
X79934Y277933D01*
X79887Y278029D01*
X79836Y278123D01*
X79782Y278215D01*
X79725Y278305D01*
X79665Y278393D01*
X79601Y278478D01*
X79534Y278561D01*
X79464Y278642D01*
X79392Y278720D01*
X79316Y278796D01*
X79238Y278868D01*
X79157Y278938D01*
X79074Y279005D01*
X78989Y279069D01*
X78901Y279129D01*
X78811Y279186D01*
X78719Y279240D01*
X78625Y279291D01*
X78529Y279338D01*
X78431Y279381D01*
X78332Y279421D01*
X78232Y279458D01*
X78131Y279490D01*
X78028Y279519D01*
X77924Y279544D01*
X77820Y279565D01*
X77714Y279583D01*
X77608Y279596D01*
X77502Y279606D01*
X77396Y279612D01*
X77289Y279614D01*
X80210Y276693D02*
X80208Y276572D01*
X80202Y276451D01*
X80192Y276331D01*
X80179Y276210D01*
X80161Y276091D01*
X80140Y275971D01*
X80115Y275853D01*
X80086Y275736D01*
X80053Y275619D01*
X80017Y275504D01*
X79976Y275390D01*
X79933Y275277D01*
X79885Y275165D01*
X79834Y275056D01*
X79779Y274948D01*
X79721Y274841D01*
X79660Y274737D01*
X79595Y274635D01*
X79527Y274535D01*
X79456Y274437D01*
X79382Y274341D01*
X79305Y274248D01*
X79224Y274158D01*
X79141Y274070D01*
X79055Y273985D01*
X78966Y273902D01*
X78875Y273823D01*
X78781Y273746D01*
X78685Y273673D01*
X78587Y273603D01*
X78486Y273536D01*
X78383Y273472D01*
X78278Y273412D01*
X78171Y273355D01*
X78063Y273301D01*
X77953Y273251D01*
X77841Y273205D01*
X77728Y273162D01*
X77613Y273123D01*
X75017Y278641D02*
X75094Y278720D01*
X75175Y278796D01*
X75258Y278869D01*
X75343Y278939D01*
X75431Y279006D01*
X75521Y279070D01*
X75613Y279130D01*
X75708Y279187D01*
X75804Y279241D01*
X75902Y279292D01*
X76002Y279339D01*
X76104Y279383D01*
X76207Y279423D01*
X76311Y279459D01*
X76417Y279491D01*
X76523Y279520D01*
X76631Y279545D01*
X76739Y279567D01*
X76849Y279584D01*
X76958Y279598D01*
X77068Y279607D01*
X77179Y279613D01*
X77289Y279615D01*
X75017Y278640D02*
X68526Y273123D01*
X68526Y279614D01*
D11*
X460020Y273800D02*
X495020Y273800D01*
X460020Y273800D02*
X460020Y208800D01*
X495020Y208800D01*
X495020Y273800D01*
D12*
X524020Y263800D02*
X524022Y263863D01*
X524028Y263925D01*
X524038Y263987D01*
X524051Y264049D01*
X524069Y264109D01*
X524090Y264168D01*
X524115Y264226D01*
X524144Y264282D01*
X524176Y264336D01*
X524211Y264388D01*
X524249Y264437D01*
X524291Y264485D01*
X524335Y264529D01*
X524383Y264571D01*
X524432Y264609D01*
X524484Y264644D01*
X524538Y264676D01*
X524594Y264705D01*
X524652Y264730D01*
X524711Y264751D01*
X524771Y264769D01*
X524833Y264782D01*
X524895Y264792D01*
X524957Y264798D01*
X525020Y264800D01*
X525083Y264798D01*
X525145Y264792D01*
X525207Y264782D01*
X525269Y264769D01*
X525329Y264751D01*
X525388Y264730D01*
X525446Y264705D01*
X525502Y264676D01*
X525556Y264644D01*
X525608Y264609D01*
X525657Y264571D01*
X525705Y264529D01*
X525749Y264485D01*
X525791Y264437D01*
X525829Y264388D01*
X525864Y264336D01*
X525896Y264282D01*
X525925Y264226D01*
X525950Y264168D01*
X525971Y264109D01*
X525989Y264049D01*
X526002Y263987D01*
X526012Y263925D01*
X526018Y263863D01*
X526020Y263800D01*
X526018Y263737D01*
X526012Y263675D01*
X526002Y263613D01*
X525989Y263551D01*
X525971Y263491D01*
X525950Y263432D01*
X525925Y263374D01*
X525896Y263318D01*
X525864Y263264D01*
X525829Y263212D01*
X525791Y263163D01*
X525749Y263115D01*
X525705Y263071D01*
X525657Y263029D01*
X525608Y262991D01*
X525556Y262956D01*
X525502Y262924D01*
X525446Y262895D01*
X525388Y262870D01*
X525329Y262849D01*
X525269Y262831D01*
X525207Y262818D01*
X525145Y262808D01*
X525083Y262802D01*
X525020Y262800D01*
X524957Y262802D01*
X524895Y262808D01*
X524833Y262818D01*
X524771Y262831D01*
X524711Y262849D01*
X524652Y262870D01*
X524594Y262895D01*
X524538Y262924D01*
X524484Y262956D01*
X524432Y262991D01*
X524383Y263029D01*
X524335Y263071D01*
X524291Y263115D01*
X524249Y263163D01*
X524211Y263212D01*
X524176Y263264D01*
X524144Y263318D01*
X524115Y263374D01*
X524090Y263432D01*
X524069Y263491D01*
X524051Y263551D01*
X524038Y263613D01*
X524028Y263675D01*
X524022Y263737D01*
X524020Y263800D01*
D13*
X508117Y279308D02*
X512012Y290992D01*
X504223Y290992D02*
X508117Y279308D01*
X499478Y279308D02*
X499478Y290992D01*
X496233Y290992D01*
X496120Y290990D01*
X496007Y290984D01*
X495894Y290974D01*
X495781Y290960D01*
X495669Y290943D01*
X495558Y290921D01*
X495448Y290896D01*
X495338Y290866D01*
X495230Y290833D01*
X495123Y290796D01*
X495017Y290756D01*
X494913Y290711D01*
X494810Y290663D01*
X494709Y290612D01*
X494610Y290557D01*
X494513Y290499D01*
X494418Y290437D01*
X494325Y290372D01*
X494235Y290304D01*
X494147Y290233D01*
X494061Y290158D01*
X493978Y290081D01*
X493898Y290001D01*
X493821Y289918D01*
X493746Y289832D01*
X493675Y289744D01*
X493607Y289654D01*
X493542Y289561D01*
X493480Y289466D01*
X493422Y289369D01*
X493367Y289270D01*
X493316Y289169D01*
X493268Y289066D01*
X493223Y288962D01*
X493183Y288856D01*
X493146Y288749D01*
X493113Y288641D01*
X493083Y288531D01*
X493058Y288421D01*
X493036Y288310D01*
X493019Y288198D01*
X493005Y288085D01*
X492995Y287972D01*
X492989Y287859D01*
X492987Y287746D01*
X492989Y287633D01*
X492995Y287520D01*
X493005Y287407D01*
X493019Y287294D01*
X493036Y287182D01*
X493058Y287071D01*
X493083Y286961D01*
X493113Y286851D01*
X493146Y286743D01*
X493183Y286636D01*
X493223Y286530D01*
X493268Y286426D01*
X493316Y286323D01*
X493367Y286222D01*
X493422Y286123D01*
X493480Y286026D01*
X493542Y285931D01*
X493607Y285838D01*
X493675Y285748D01*
X493746Y285660D01*
X493821Y285574D01*
X493898Y285491D01*
X493978Y285411D01*
X494061Y285334D01*
X494147Y285259D01*
X494235Y285188D01*
X494325Y285120D01*
X494418Y285055D01*
X494513Y284993D01*
X494610Y284935D01*
X494709Y284880D01*
X494810Y284829D01*
X494913Y284781D01*
X495017Y284736D01*
X495123Y284696D01*
X495230Y284659D01*
X495338Y284626D01*
X495448Y284596D01*
X495558Y284571D01*
X495669Y284549D01*
X495781Y284532D01*
X495894Y284518D01*
X496007Y284508D01*
X496120Y284502D01*
X496233Y284500D01*
X496233Y284501D02*
X499478Y284501D01*
X495584Y284501D02*
X492987Y279308D01*
X488122Y288396D02*
X484876Y290992D01*
X484876Y279308D01*
X481631Y279308D02*
X488122Y279308D01*
D11*
X561075Y263500D02*
X561313Y264060D01*
X561565Y264614D01*
X561830Y265162D01*
X562109Y265704D01*
X562400Y266238D01*
X562705Y266765D01*
X563022Y267285D01*
X563352Y267797D01*
X563694Y268300D01*
X564048Y268795D01*
X564414Y269281D01*
X564792Y269759D01*
X565182Y270227D01*
X565582Y270685D01*
X565994Y271133D01*
X566417Y271571D01*
X566850Y271999D01*
X567293Y272416D01*
X567747Y272822D01*
X568210Y273217D01*
X568682Y273601D01*
X569164Y273973D01*
X569655Y274333D01*
X570154Y274681D01*
X570662Y275017D01*
X571178Y275341D01*
X571701Y275651D01*
X572232Y275949D01*
X572770Y276234D01*
X573315Y276506D01*
X573866Y276764D01*
X574423Y277009D01*
X574987Y277240D01*
X575555Y277458D01*
X576129Y277661D01*
X576707Y277851D01*
X577290Y278026D01*
X577877Y278187D01*
X578468Y278334D01*
X579062Y278466D01*
X579660Y278584D01*
X580260Y278688D01*
X580862Y278776D01*
X581466Y278850D01*
X582072Y278909D01*
X582679Y278954D01*
X583287Y278983D01*
X583896Y278998D01*
X584504Y278998D01*
X585113Y278983D01*
X585721Y278954D01*
X586328Y278909D01*
X586934Y278850D01*
X587538Y278776D01*
X588140Y278688D01*
X588740Y278584D01*
X589338Y278466D01*
X589932Y278334D01*
X590523Y278187D01*
X591110Y278026D01*
X591693Y277851D01*
X592271Y277661D01*
X592845Y277458D01*
X593413Y277240D01*
X593977Y277009D01*
X594534Y276764D01*
X595085Y276506D01*
X595630Y276234D01*
X596168Y275949D01*
X596699Y275651D01*
X597222Y275341D01*
X597738Y275017D01*
X598246Y274681D01*
X598745Y274333D01*
X599236Y273973D01*
X599718Y273601D01*
X600190Y273217D01*
X600653Y272822D01*
X601107Y272416D01*
X601550Y271999D01*
X601983Y271571D01*
X602406Y271133D01*
X602818Y270685D01*
X603218Y270227D01*
X603608Y269759D01*
X603986Y269281D01*
X604352Y268795D01*
X604706Y268300D01*
X605048Y267797D01*
X605378Y267285D01*
X605695Y266765D01*
X606000Y266238D01*
X606291Y265704D01*
X606570Y265162D01*
X606835Y264614D01*
X607087Y264060D01*
X607325Y263500D01*
X607325Y244500D02*
X607087Y243940D01*
X606835Y243386D01*
X606570Y242838D01*
X606291Y242296D01*
X606000Y241762D01*
X605695Y241235D01*
X605378Y240715D01*
X605048Y240203D01*
X604706Y239700D01*
X604352Y239205D01*
X603986Y238719D01*
X603608Y238241D01*
X603218Y237773D01*
X602818Y237315D01*
X602406Y236867D01*
X601983Y236429D01*
X601550Y236001D01*
X601107Y235584D01*
X600653Y235178D01*
X600190Y234783D01*
X599718Y234399D01*
X599236Y234027D01*
X598745Y233667D01*
X598246Y233319D01*
X597738Y232983D01*
X597222Y232659D01*
X596699Y232349D01*
X596168Y232051D01*
X595630Y231766D01*
X595085Y231494D01*
X594534Y231236D01*
X593977Y230991D01*
X593413Y230760D01*
X592845Y230542D01*
X592271Y230339D01*
X591693Y230149D01*
X591110Y229974D01*
X590523Y229813D01*
X589932Y229666D01*
X589338Y229534D01*
X588740Y229416D01*
X588140Y229312D01*
X587538Y229224D01*
X586934Y229150D01*
X586328Y229091D01*
X585721Y229046D01*
X585113Y229017D01*
X584504Y229002D01*
X583896Y229002D01*
X583287Y229017D01*
X582679Y229046D01*
X582072Y229091D01*
X581466Y229150D01*
X580862Y229224D01*
X580260Y229312D01*
X579660Y229416D01*
X579062Y229534D01*
X578468Y229666D01*
X577877Y229813D01*
X577290Y229974D01*
X576707Y230149D01*
X576129Y230339D01*
X575555Y230542D01*
X574987Y230760D01*
X574423Y230991D01*
X573866Y231236D01*
X573315Y231494D01*
X572770Y231766D01*
X572232Y232051D01*
X571701Y232349D01*
X571178Y232659D01*
X570662Y232983D01*
X570154Y233319D01*
X569655Y233667D01*
X569164Y234027D01*
X568682Y234399D01*
X568210Y234783D01*
X567747Y235178D01*
X567293Y235584D01*
X566850Y236001D01*
X566417Y236429D01*
X565994Y236867D01*
X565582Y237315D01*
X565182Y237773D01*
X564792Y238241D01*
X564414Y238719D01*
X564048Y239205D01*
X563694Y239700D01*
X563352Y240203D01*
X563022Y240715D01*
X562705Y241235D01*
X562400Y241762D01*
X562109Y242296D01*
X561830Y242838D01*
X561565Y243386D01*
X561313Y243940D01*
X561075Y244500D01*
D12*
X622830Y254000D02*
X622832Y254063D01*
X622838Y254125D01*
X622848Y254187D01*
X622861Y254249D01*
X622879Y254309D01*
X622900Y254368D01*
X622925Y254426D01*
X622954Y254482D01*
X622986Y254536D01*
X623021Y254588D01*
X623059Y254637D01*
X623101Y254685D01*
X623145Y254729D01*
X623193Y254771D01*
X623242Y254809D01*
X623294Y254844D01*
X623348Y254876D01*
X623404Y254905D01*
X623462Y254930D01*
X623521Y254951D01*
X623581Y254969D01*
X623643Y254982D01*
X623705Y254992D01*
X623767Y254998D01*
X623830Y255000D01*
X623893Y254998D01*
X623955Y254992D01*
X624017Y254982D01*
X624079Y254969D01*
X624139Y254951D01*
X624198Y254930D01*
X624256Y254905D01*
X624312Y254876D01*
X624366Y254844D01*
X624418Y254809D01*
X624467Y254771D01*
X624515Y254729D01*
X624559Y254685D01*
X624601Y254637D01*
X624639Y254588D01*
X624674Y254536D01*
X624706Y254482D01*
X624735Y254426D01*
X624760Y254368D01*
X624781Y254309D01*
X624799Y254249D01*
X624812Y254187D01*
X624822Y254125D01*
X624828Y254063D01*
X624830Y254000D01*
X624828Y253937D01*
X624822Y253875D01*
X624812Y253813D01*
X624799Y253751D01*
X624781Y253691D01*
X624760Y253632D01*
X624735Y253574D01*
X624706Y253518D01*
X624674Y253464D01*
X624639Y253412D01*
X624601Y253363D01*
X624559Y253315D01*
X624515Y253271D01*
X624467Y253229D01*
X624418Y253191D01*
X624366Y253156D01*
X624312Y253124D01*
X624256Y253095D01*
X624198Y253070D01*
X624139Y253049D01*
X624079Y253031D01*
X624017Y253018D01*
X623955Y253008D01*
X623893Y253002D01*
X623830Y253000D01*
X623767Y253002D01*
X623705Y253008D01*
X623643Y253018D01*
X623581Y253031D01*
X623521Y253049D01*
X623462Y253070D01*
X623404Y253095D01*
X623348Y253124D01*
X623294Y253156D01*
X623242Y253191D01*
X623193Y253229D01*
X623145Y253271D01*
X623101Y253315D01*
X623059Y253363D01*
X623021Y253412D01*
X622986Y253464D01*
X622954Y253518D01*
X622925Y253574D01*
X622900Y253632D01*
X622879Y253691D01*
X622861Y253751D01*
X622848Y253813D01*
X622838Y253875D01*
X622832Y253937D01*
X622830Y254000D01*
D13*
X609954Y293638D02*
X607357Y293638D01*
X609954Y293638D02*
X610053Y293640D01*
X610153Y293646D01*
X610252Y293655D01*
X610350Y293668D01*
X610448Y293685D01*
X610546Y293706D01*
X610642Y293731D01*
X610737Y293759D01*
X610831Y293791D01*
X610924Y293826D01*
X611016Y293865D01*
X611106Y293908D01*
X611194Y293953D01*
X611281Y294003D01*
X611365Y294055D01*
X611448Y294111D01*
X611528Y294169D01*
X611606Y294231D01*
X611681Y294296D01*
X611754Y294364D01*
X611824Y294434D01*
X611892Y294507D01*
X611957Y294582D01*
X612019Y294660D01*
X612077Y294740D01*
X612133Y294823D01*
X612185Y294907D01*
X612235Y294994D01*
X612280Y295082D01*
X612323Y295172D01*
X612362Y295264D01*
X612397Y295357D01*
X612429Y295451D01*
X612457Y295546D01*
X612482Y295642D01*
X612503Y295740D01*
X612520Y295838D01*
X612533Y295936D01*
X612542Y296035D01*
X612548Y296135D01*
X612550Y296234D01*
X612550Y302726D01*
X612548Y302825D01*
X612542Y302925D01*
X612533Y303024D01*
X612520Y303122D01*
X612503Y303220D01*
X612482Y303318D01*
X612457Y303414D01*
X612429Y303509D01*
X612397Y303603D01*
X612362Y303696D01*
X612323Y303788D01*
X612280Y303878D01*
X612235Y303966D01*
X612185Y304053D01*
X612133Y304137D01*
X612077Y304220D01*
X612019Y304300D01*
X611957Y304378D01*
X611892Y304453D01*
X611824Y304526D01*
X611754Y304596D01*
X611681Y304664D01*
X611606Y304729D01*
X611528Y304791D01*
X611448Y304849D01*
X611365Y304905D01*
X611281Y304957D01*
X611194Y305007D01*
X611106Y305052D01*
X611016Y305095D01*
X610924Y305134D01*
X610831Y305169D01*
X610737Y305201D01*
X610642Y305229D01*
X610546Y305254D01*
X610448Y305275D01*
X610350Y305292D01*
X610252Y305305D01*
X610153Y305314D01*
X610053Y305320D01*
X609954Y305322D01*
X607357Y305322D01*
X602992Y293638D02*
X599746Y293638D01*
X599633Y293640D01*
X599520Y293646D01*
X599407Y293656D01*
X599294Y293670D01*
X599182Y293687D01*
X599071Y293709D01*
X598961Y293734D01*
X598851Y293764D01*
X598743Y293797D01*
X598636Y293834D01*
X598530Y293874D01*
X598426Y293919D01*
X598323Y293967D01*
X598222Y294018D01*
X598123Y294073D01*
X598026Y294131D01*
X597931Y294193D01*
X597838Y294258D01*
X597748Y294326D01*
X597660Y294397D01*
X597574Y294472D01*
X597491Y294549D01*
X597411Y294629D01*
X597334Y294712D01*
X597259Y294798D01*
X597188Y294886D01*
X597120Y294976D01*
X597055Y295069D01*
X596993Y295164D01*
X596935Y295261D01*
X596880Y295360D01*
X596829Y295461D01*
X596781Y295564D01*
X596736Y295668D01*
X596696Y295774D01*
X596659Y295881D01*
X596626Y295989D01*
X596596Y296099D01*
X596571Y296209D01*
X596549Y296320D01*
X596532Y296432D01*
X596518Y296545D01*
X596508Y296658D01*
X596502Y296771D01*
X596500Y296884D01*
X596502Y296997D01*
X596508Y297110D01*
X596518Y297223D01*
X596532Y297336D01*
X596549Y297448D01*
X596571Y297559D01*
X596596Y297669D01*
X596626Y297779D01*
X596659Y297887D01*
X596696Y297994D01*
X596736Y298100D01*
X596781Y298204D01*
X596829Y298307D01*
X596880Y298408D01*
X596935Y298507D01*
X596993Y298604D01*
X597055Y298699D01*
X597120Y298792D01*
X597188Y298882D01*
X597259Y298970D01*
X597334Y299056D01*
X597411Y299139D01*
X597491Y299219D01*
X597574Y299296D01*
X597660Y299371D01*
X597748Y299442D01*
X597838Y299510D01*
X597931Y299575D01*
X598026Y299637D01*
X598123Y299695D01*
X598222Y299750D01*
X598323Y299801D01*
X598426Y299849D01*
X598530Y299894D01*
X598636Y299934D01*
X598743Y299971D01*
X598851Y300004D01*
X598961Y300034D01*
X599071Y300059D01*
X599182Y300081D01*
X599294Y300098D01*
X599407Y300112D01*
X599520Y300122D01*
X599633Y300128D01*
X599746Y300130D01*
X599097Y305322D02*
X602992Y305322D01*
X599097Y305322D02*
X598996Y305320D01*
X598896Y305314D01*
X598796Y305304D01*
X598696Y305291D01*
X598597Y305273D01*
X598498Y305252D01*
X598401Y305227D01*
X598304Y305198D01*
X598209Y305165D01*
X598115Y305129D01*
X598023Y305089D01*
X597932Y305046D01*
X597843Y304999D01*
X597756Y304949D01*
X597670Y304895D01*
X597587Y304838D01*
X597507Y304778D01*
X597428Y304715D01*
X597352Y304648D01*
X597279Y304579D01*
X597209Y304507D01*
X597141Y304433D01*
X597076Y304356D01*
X597015Y304276D01*
X596956Y304194D01*
X596901Y304110D01*
X596849Y304024D01*
X596800Y303936D01*
X596755Y303846D01*
X596713Y303754D01*
X596675Y303661D01*
X596641Y303566D01*
X596610Y303471D01*
X596583Y303374D01*
X596560Y303276D01*
X596540Y303177D01*
X596525Y303077D01*
X596513Y302977D01*
X596505Y302877D01*
X596501Y302776D01*
X596501Y302676D01*
X596505Y302575D01*
X596513Y302475D01*
X596525Y302375D01*
X596540Y302275D01*
X596560Y302176D01*
X596583Y302078D01*
X596610Y301981D01*
X596641Y301886D01*
X596675Y301791D01*
X596713Y301698D01*
X596755Y301606D01*
X596800Y301516D01*
X596849Y301428D01*
X596901Y301342D01*
X596956Y301258D01*
X597015Y301176D01*
X597076Y301096D01*
X597141Y301019D01*
X597209Y300945D01*
X597279Y300873D01*
X597352Y300804D01*
X597428Y300737D01*
X597507Y300674D01*
X597587Y300614D01*
X597670Y300557D01*
X597756Y300503D01*
X597843Y300453D01*
X597932Y300406D01*
X598023Y300363D01*
X598115Y300323D01*
X598209Y300287D01*
X598304Y300254D01*
X598401Y300225D01*
X598498Y300200D01*
X598597Y300179D01*
X598696Y300161D01*
X598796Y300148D01*
X598896Y300138D01*
X598996Y300132D01*
X599097Y300130D01*
X599097Y300129D02*
X601694Y300129D01*
M02*
