G04 EAGLE Gerber RS-274X export*
G75*
%MOMM*%
%FSLAX34Y34*%
%LPD*%
%INSoldermask Bottom*%
%IPPOS*%
%AMOC8*
5,1,8,0,0,1.08239X$1,22.5*%
G01*
%ADD10R,1.422400X1.295400*%
%ADD11C,0.609600*%
%ADD12C,1.168400*%
%ADD13R,1.692400X1.692400*%
%ADD14C,1.692400*%
%ADD15R,1.440400X1.440400*%
%ADD16C,1.440400*%
%ADD17C,3.372400*%
%ADD18C,1.552400*%
%ADD19C,2.000400*%
%ADD20R,1.676400X1.676400*%
%ADD21P,1.814519X8X202.500000*%
%ADD22C,0.389663*%
%ADD23C,0.617644*%
%ADD24R,1.252400X1.252400*%
%ADD25C,1.252400*%
%ADD26C,4.597400*%


D10*
X538480Y199390D03*
X538480Y217170D03*
X411480Y229870D03*
X411480Y247650D03*
D11*
X652780Y101600D02*
X652782Y101787D01*
X652789Y101974D01*
X652801Y102161D01*
X652817Y102347D01*
X652837Y102533D01*
X652862Y102718D01*
X652892Y102903D01*
X652926Y103087D01*
X652965Y103270D01*
X653008Y103452D01*
X653056Y103632D01*
X653108Y103812D01*
X653165Y103990D01*
X653225Y104167D01*
X653291Y104342D01*
X653360Y104516D01*
X653434Y104688D01*
X653512Y104858D01*
X653594Y105026D01*
X653680Y105192D01*
X653770Y105356D01*
X653864Y105517D01*
X653962Y105677D01*
X654064Y105833D01*
X654170Y105988D01*
X654280Y106139D01*
X654393Y106288D01*
X654510Y106434D01*
X654630Y106577D01*
X654754Y106717D01*
X654881Y106854D01*
X655012Y106988D01*
X655146Y107119D01*
X655283Y107246D01*
X655423Y107370D01*
X655566Y107490D01*
X655712Y107607D01*
X655861Y107720D01*
X656012Y107830D01*
X656167Y107936D01*
X656323Y108038D01*
X656483Y108136D01*
X656644Y108230D01*
X656808Y108320D01*
X656974Y108406D01*
X657142Y108488D01*
X657312Y108566D01*
X657484Y108640D01*
X657658Y108709D01*
X657833Y108775D01*
X658010Y108835D01*
X658188Y108892D01*
X658368Y108944D01*
X658548Y108992D01*
X658730Y109035D01*
X658913Y109074D01*
X659097Y109108D01*
X659282Y109138D01*
X659467Y109163D01*
X659653Y109183D01*
X659839Y109199D01*
X660026Y109211D01*
X660213Y109218D01*
X660400Y109220D01*
X660587Y109218D01*
X660774Y109211D01*
X660961Y109199D01*
X661147Y109183D01*
X661333Y109163D01*
X661518Y109138D01*
X661703Y109108D01*
X661887Y109074D01*
X662070Y109035D01*
X662252Y108992D01*
X662432Y108944D01*
X662612Y108892D01*
X662790Y108835D01*
X662967Y108775D01*
X663142Y108709D01*
X663316Y108640D01*
X663488Y108566D01*
X663658Y108488D01*
X663826Y108406D01*
X663992Y108320D01*
X664156Y108230D01*
X664317Y108136D01*
X664477Y108038D01*
X664633Y107936D01*
X664788Y107830D01*
X664939Y107720D01*
X665088Y107607D01*
X665234Y107490D01*
X665377Y107370D01*
X665517Y107246D01*
X665654Y107119D01*
X665788Y106988D01*
X665919Y106854D01*
X666046Y106717D01*
X666170Y106577D01*
X666290Y106434D01*
X666407Y106288D01*
X666520Y106139D01*
X666630Y105988D01*
X666736Y105833D01*
X666838Y105677D01*
X666936Y105517D01*
X667030Y105356D01*
X667120Y105192D01*
X667206Y105026D01*
X667288Y104858D01*
X667366Y104688D01*
X667440Y104516D01*
X667509Y104342D01*
X667575Y104167D01*
X667635Y103990D01*
X667692Y103812D01*
X667744Y103632D01*
X667792Y103452D01*
X667835Y103270D01*
X667874Y103087D01*
X667908Y102903D01*
X667938Y102718D01*
X667963Y102533D01*
X667983Y102347D01*
X667999Y102161D01*
X668011Y101974D01*
X668018Y101787D01*
X668020Y101600D01*
X668018Y101413D01*
X668011Y101226D01*
X667999Y101039D01*
X667983Y100853D01*
X667963Y100667D01*
X667938Y100482D01*
X667908Y100297D01*
X667874Y100113D01*
X667835Y99930D01*
X667792Y99748D01*
X667744Y99568D01*
X667692Y99388D01*
X667635Y99210D01*
X667575Y99033D01*
X667509Y98858D01*
X667440Y98684D01*
X667366Y98512D01*
X667288Y98342D01*
X667206Y98174D01*
X667120Y98008D01*
X667030Y97844D01*
X666936Y97683D01*
X666838Y97523D01*
X666736Y97367D01*
X666630Y97212D01*
X666520Y97061D01*
X666407Y96912D01*
X666290Y96766D01*
X666170Y96623D01*
X666046Y96483D01*
X665919Y96346D01*
X665788Y96212D01*
X665654Y96081D01*
X665517Y95954D01*
X665377Y95830D01*
X665234Y95710D01*
X665088Y95593D01*
X664939Y95480D01*
X664788Y95370D01*
X664633Y95264D01*
X664477Y95162D01*
X664317Y95064D01*
X664156Y94970D01*
X663992Y94880D01*
X663826Y94794D01*
X663658Y94712D01*
X663488Y94634D01*
X663316Y94560D01*
X663142Y94491D01*
X662967Y94425D01*
X662790Y94365D01*
X662612Y94308D01*
X662432Y94256D01*
X662252Y94208D01*
X662070Y94165D01*
X661887Y94126D01*
X661703Y94092D01*
X661518Y94062D01*
X661333Y94037D01*
X661147Y94017D01*
X660961Y94001D01*
X660774Y93989D01*
X660587Y93982D01*
X660400Y93980D01*
X660213Y93982D01*
X660026Y93989D01*
X659839Y94001D01*
X659653Y94017D01*
X659467Y94037D01*
X659282Y94062D01*
X659097Y94092D01*
X658913Y94126D01*
X658730Y94165D01*
X658548Y94208D01*
X658368Y94256D01*
X658188Y94308D01*
X658010Y94365D01*
X657833Y94425D01*
X657658Y94491D01*
X657484Y94560D01*
X657312Y94634D01*
X657142Y94712D01*
X656974Y94794D01*
X656808Y94880D01*
X656644Y94970D01*
X656483Y95064D01*
X656323Y95162D01*
X656167Y95264D01*
X656012Y95370D01*
X655861Y95480D01*
X655712Y95593D01*
X655566Y95710D01*
X655423Y95830D01*
X655283Y95954D01*
X655146Y96081D01*
X655012Y96212D01*
X654881Y96346D01*
X654754Y96483D01*
X654630Y96623D01*
X654510Y96766D01*
X654393Y96912D01*
X654280Y97061D01*
X654170Y97212D01*
X654064Y97367D01*
X653962Y97523D01*
X653864Y97683D01*
X653770Y97844D01*
X653680Y98008D01*
X653594Y98174D01*
X653512Y98342D01*
X653434Y98512D01*
X653360Y98684D01*
X653291Y98858D01*
X653225Y99033D01*
X653165Y99210D01*
X653108Y99388D01*
X653056Y99568D01*
X653008Y99748D01*
X652965Y99930D01*
X652926Y100113D01*
X652892Y100297D01*
X652862Y100482D01*
X652837Y100667D01*
X652817Y100853D01*
X652801Y101039D01*
X652789Y101226D01*
X652782Y101413D01*
X652780Y101600D01*
D12*
X660400Y101600D03*
D11*
X30480Y419100D02*
X30482Y419287D01*
X30489Y419474D01*
X30501Y419661D01*
X30517Y419847D01*
X30537Y420033D01*
X30562Y420218D01*
X30592Y420403D01*
X30626Y420587D01*
X30665Y420770D01*
X30708Y420952D01*
X30756Y421132D01*
X30808Y421312D01*
X30865Y421490D01*
X30925Y421667D01*
X30991Y421842D01*
X31060Y422016D01*
X31134Y422188D01*
X31212Y422358D01*
X31294Y422526D01*
X31380Y422692D01*
X31470Y422856D01*
X31564Y423017D01*
X31662Y423177D01*
X31764Y423333D01*
X31870Y423488D01*
X31980Y423639D01*
X32093Y423788D01*
X32210Y423934D01*
X32330Y424077D01*
X32454Y424217D01*
X32581Y424354D01*
X32712Y424488D01*
X32846Y424619D01*
X32983Y424746D01*
X33123Y424870D01*
X33266Y424990D01*
X33412Y425107D01*
X33561Y425220D01*
X33712Y425330D01*
X33867Y425436D01*
X34023Y425538D01*
X34183Y425636D01*
X34344Y425730D01*
X34508Y425820D01*
X34674Y425906D01*
X34842Y425988D01*
X35012Y426066D01*
X35184Y426140D01*
X35358Y426209D01*
X35533Y426275D01*
X35710Y426335D01*
X35888Y426392D01*
X36068Y426444D01*
X36248Y426492D01*
X36430Y426535D01*
X36613Y426574D01*
X36797Y426608D01*
X36982Y426638D01*
X37167Y426663D01*
X37353Y426683D01*
X37539Y426699D01*
X37726Y426711D01*
X37913Y426718D01*
X38100Y426720D01*
X38287Y426718D01*
X38474Y426711D01*
X38661Y426699D01*
X38847Y426683D01*
X39033Y426663D01*
X39218Y426638D01*
X39403Y426608D01*
X39587Y426574D01*
X39770Y426535D01*
X39952Y426492D01*
X40132Y426444D01*
X40312Y426392D01*
X40490Y426335D01*
X40667Y426275D01*
X40842Y426209D01*
X41016Y426140D01*
X41188Y426066D01*
X41358Y425988D01*
X41526Y425906D01*
X41692Y425820D01*
X41856Y425730D01*
X42017Y425636D01*
X42177Y425538D01*
X42333Y425436D01*
X42488Y425330D01*
X42639Y425220D01*
X42788Y425107D01*
X42934Y424990D01*
X43077Y424870D01*
X43217Y424746D01*
X43354Y424619D01*
X43488Y424488D01*
X43619Y424354D01*
X43746Y424217D01*
X43870Y424077D01*
X43990Y423934D01*
X44107Y423788D01*
X44220Y423639D01*
X44330Y423488D01*
X44436Y423333D01*
X44538Y423177D01*
X44636Y423017D01*
X44730Y422856D01*
X44820Y422692D01*
X44906Y422526D01*
X44988Y422358D01*
X45066Y422188D01*
X45140Y422016D01*
X45209Y421842D01*
X45275Y421667D01*
X45335Y421490D01*
X45392Y421312D01*
X45444Y421132D01*
X45492Y420952D01*
X45535Y420770D01*
X45574Y420587D01*
X45608Y420403D01*
X45638Y420218D01*
X45663Y420033D01*
X45683Y419847D01*
X45699Y419661D01*
X45711Y419474D01*
X45718Y419287D01*
X45720Y419100D01*
X45718Y418913D01*
X45711Y418726D01*
X45699Y418539D01*
X45683Y418353D01*
X45663Y418167D01*
X45638Y417982D01*
X45608Y417797D01*
X45574Y417613D01*
X45535Y417430D01*
X45492Y417248D01*
X45444Y417068D01*
X45392Y416888D01*
X45335Y416710D01*
X45275Y416533D01*
X45209Y416358D01*
X45140Y416184D01*
X45066Y416012D01*
X44988Y415842D01*
X44906Y415674D01*
X44820Y415508D01*
X44730Y415344D01*
X44636Y415183D01*
X44538Y415023D01*
X44436Y414867D01*
X44330Y414712D01*
X44220Y414561D01*
X44107Y414412D01*
X43990Y414266D01*
X43870Y414123D01*
X43746Y413983D01*
X43619Y413846D01*
X43488Y413712D01*
X43354Y413581D01*
X43217Y413454D01*
X43077Y413330D01*
X42934Y413210D01*
X42788Y413093D01*
X42639Y412980D01*
X42488Y412870D01*
X42333Y412764D01*
X42177Y412662D01*
X42017Y412564D01*
X41856Y412470D01*
X41692Y412380D01*
X41526Y412294D01*
X41358Y412212D01*
X41188Y412134D01*
X41016Y412060D01*
X40842Y411991D01*
X40667Y411925D01*
X40490Y411865D01*
X40312Y411808D01*
X40132Y411756D01*
X39952Y411708D01*
X39770Y411665D01*
X39587Y411626D01*
X39403Y411592D01*
X39218Y411562D01*
X39033Y411537D01*
X38847Y411517D01*
X38661Y411501D01*
X38474Y411489D01*
X38287Y411482D01*
X38100Y411480D01*
X37913Y411482D01*
X37726Y411489D01*
X37539Y411501D01*
X37353Y411517D01*
X37167Y411537D01*
X36982Y411562D01*
X36797Y411592D01*
X36613Y411626D01*
X36430Y411665D01*
X36248Y411708D01*
X36068Y411756D01*
X35888Y411808D01*
X35710Y411865D01*
X35533Y411925D01*
X35358Y411991D01*
X35184Y412060D01*
X35012Y412134D01*
X34842Y412212D01*
X34674Y412294D01*
X34508Y412380D01*
X34344Y412470D01*
X34183Y412564D01*
X34023Y412662D01*
X33867Y412764D01*
X33712Y412870D01*
X33561Y412980D01*
X33412Y413093D01*
X33266Y413210D01*
X33123Y413330D01*
X32983Y413454D01*
X32846Y413581D01*
X32712Y413712D01*
X32581Y413846D01*
X32454Y413983D01*
X32330Y414123D01*
X32210Y414266D01*
X32093Y414412D01*
X31980Y414561D01*
X31870Y414712D01*
X31764Y414867D01*
X31662Y415023D01*
X31564Y415183D01*
X31470Y415344D01*
X31380Y415508D01*
X31294Y415674D01*
X31212Y415842D01*
X31134Y416012D01*
X31060Y416184D01*
X30991Y416358D01*
X30925Y416533D01*
X30865Y416710D01*
X30808Y416888D01*
X30756Y417068D01*
X30708Y417248D01*
X30665Y417430D01*
X30626Y417613D01*
X30592Y417797D01*
X30562Y417982D01*
X30537Y418167D01*
X30517Y418353D01*
X30501Y418539D01*
X30489Y418726D01*
X30482Y418913D01*
X30480Y419100D01*
D12*
X38100Y419100D03*
D13*
X114300Y444500D03*
D14*
X165100Y444500D03*
X215900Y444500D03*
X266700Y444500D03*
D15*
X431800Y393700D03*
D16*
X406800Y393700D03*
X386800Y393700D03*
X361800Y393700D03*
D17*
X462500Y420800D03*
X331100Y420800D03*
D18*
X577200Y449100D02*
X591200Y449100D01*
X591200Y389100D02*
X577200Y389100D01*
X537200Y412100D02*
X537200Y426100D01*
D19*
X279400Y269240D03*
X254000Y269240D03*
X228600Y269240D03*
X203200Y269240D03*
X177800Y269240D03*
X152400Y269240D03*
X127000Y269240D03*
X101600Y269240D03*
X101600Y116840D03*
X127000Y116840D03*
X152400Y116840D03*
X177800Y116840D03*
X203200Y116840D03*
X228600Y116840D03*
X254000Y116840D03*
X279400Y116840D03*
D20*
X563200Y333000D03*
D21*
X563200Y307600D03*
X537800Y333000D03*
X537800Y307600D03*
X512400Y333000D03*
X512400Y307600D03*
X487000Y333000D03*
X487000Y307600D03*
X461600Y333000D03*
X461600Y307600D03*
X436200Y333000D03*
X436200Y307600D03*
X410800Y333000D03*
X410800Y307600D03*
X385400Y333000D03*
X385400Y307600D03*
X360000Y333000D03*
X360000Y307600D03*
X334600Y333000D03*
X334600Y307600D03*
X309200Y333000D03*
X309200Y307600D03*
X283800Y333000D03*
X283800Y307600D03*
X258400Y333000D03*
X258400Y307600D03*
X233000Y333000D03*
X233000Y307600D03*
X207600Y333000D03*
X207600Y307600D03*
X182200Y333000D03*
X182200Y307600D03*
X156800Y333000D03*
X156800Y307600D03*
X131400Y333000D03*
X131400Y307600D03*
D20*
X563200Y79000D03*
D21*
X563200Y53600D03*
X537800Y79000D03*
X537800Y53600D03*
X512400Y79000D03*
X512400Y53600D03*
X487000Y79000D03*
X487000Y53600D03*
X461600Y79000D03*
X461600Y53600D03*
X436200Y79000D03*
X436200Y53600D03*
X410800Y79000D03*
X410800Y53600D03*
X385400Y79000D03*
X385400Y53600D03*
X360000Y79000D03*
X360000Y53600D03*
X334600Y79000D03*
X334600Y53600D03*
X309200Y79000D03*
X309200Y53600D03*
X283800Y79000D03*
X283800Y53600D03*
X258400Y79000D03*
X258400Y53600D03*
X233000Y79000D03*
X233000Y53600D03*
X207600Y79000D03*
X207600Y53600D03*
X182200Y79000D03*
X182200Y53600D03*
X156800Y79000D03*
X156800Y53600D03*
X131400Y79000D03*
X131400Y53600D03*
D22*
X500356Y267764D02*
X516384Y267764D01*
X516384Y260836D01*
X500356Y260836D01*
X500356Y267764D01*
X500356Y264538D02*
X516384Y264538D01*
X516384Y244764D02*
X500356Y244764D01*
X516384Y244764D02*
X516384Y237836D01*
X500356Y237836D01*
X500356Y244764D01*
X500356Y241538D02*
X516384Y241538D01*
X516384Y221764D02*
X500356Y221764D01*
X516384Y221764D02*
X516384Y214836D01*
X500356Y214836D01*
X500356Y221764D01*
X500356Y218538D02*
X516384Y218538D01*
D23*
X453544Y254924D02*
X439796Y254924D01*
X453544Y254924D02*
X453544Y227676D01*
X439796Y227676D01*
X439796Y254924D01*
X439796Y233543D02*
X453544Y233543D01*
X453544Y239410D02*
X439796Y239410D01*
X439796Y245277D02*
X453544Y245277D01*
X453544Y251144D02*
X439796Y251144D01*
D24*
X609200Y254000D03*
D25*
X559200Y254000D03*
D26*
X38100Y38100D03*
X38100Y495300D03*
X660400Y495300D03*
X660400Y38100D03*
D11*
X30480Y114300D02*
X30482Y114487D01*
X30489Y114674D01*
X30501Y114861D01*
X30517Y115047D01*
X30537Y115233D01*
X30562Y115418D01*
X30592Y115603D01*
X30626Y115787D01*
X30665Y115970D01*
X30708Y116152D01*
X30756Y116332D01*
X30808Y116512D01*
X30865Y116690D01*
X30925Y116867D01*
X30991Y117042D01*
X31060Y117216D01*
X31134Y117388D01*
X31212Y117558D01*
X31294Y117726D01*
X31380Y117892D01*
X31470Y118056D01*
X31564Y118217D01*
X31662Y118377D01*
X31764Y118533D01*
X31870Y118688D01*
X31980Y118839D01*
X32093Y118988D01*
X32210Y119134D01*
X32330Y119277D01*
X32454Y119417D01*
X32581Y119554D01*
X32712Y119688D01*
X32846Y119819D01*
X32983Y119946D01*
X33123Y120070D01*
X33266Y120190D01*
X33412Y120307D01*
X33561Y120420D01*
X33712Y120530D01*
X33867Y120636D01*
X34023Y120738D01*
X34183Y120836D01*
X34344Y120930D01*
X34508Y121020D01*
X34674Y121106D01*
X34842Y121188D01*
X35012Y121266D01*
X35184Y121340D01*
X35358Y121409D01*
X35533Y121475D01*
X35710Y121535D01*
X35888Y121592D01*
X36068Y121644D01*
X36248Y121692D01*
X36430Y121735D01*
X36613Y121774D01*
X36797Y121808D01*
X36982Y121838D01*
X37167Y121863D01*
X37353Y121883D01*
X37539Y121899D01*
X37726Y121911D01*
X37913Y121918D01*
X38100Y121920D01*
X38287Y121918D01*
X38474Y121911D01*
X38661Y121899D01*
X38847Y121883D01*
X39033Y121863D01*
X39218Y121838D01*
X39403Y121808D01*
X39587Y121774D01*
X39770Y121735D01*
X39952Y121692D01*
X40132Y121644D01*
X40312Y121592D01*
X40490Y121535D01*
X40667Y121475D01*
X40842Y121409D01*
X41016Y121340D01*
X41188Y121266D01*
X41358Y121188D01*
X41526Y121106D01*
X41692Y121020D01*
X41856Y120930D01*
X42017Y120836D01*
X42177Y120738D01*
X42333Y120636D01*
X42488Y120530D01*
X42639Y120420D01*
X42788Y120307D01*
X42934Y120190D01*
X43077Y120070D01*
X43217Y119946D01*
X43354Y119819D01*
X43488Y119688D01*
X43619Y119554D01*
X43746Y119417D01*
X43870Y119277D01*
X43990Y119134D01*
X44107Y118988D01*
X44220Y118839D01*
X44330Y118688D01*
X44436Y118533D01*
X44538Y118377D01*
X44636Y118217D01*
X44730Y118056D01*
X44820Y117892D01*
X44906Y117726D01*
X44988Y117558D01*
X45066Y117388D01*
X45140Y117216D01*
X45209Y117042D01*
X45275Y116867D01*
X45335Y116690D01*
X45392Y116512D01*
X45444Y116332D01*
X45492Y116152D01*
X45535Y115970D01*
X45574Y115787D01*
X45608Y115603D01*
X45638Y115418D01*
X45663Y115233D01*
X45683Y115047D01*
X45699Y114861D01*
X45711Y114674D01*
X45718Y114487D01*
X45720Y114300D01*
X45718Y114113D01*
X45711Y113926D01*
X45699Y113739D01*
X45683Y113553D01*
X45663Y113367D01*
X45638Y113182D01*
X45608Y112997D01*
X45574Y112813D01*
X45535Y112630D01*
X45492Y112448D01*
X45444Y112268D01*
X45392Y112088D01*
X45335Y111910D01*
X45275Y111733D01*
X45209Y111558D01*
X45140Y111384D01*
X45066Y111212D01*
X44988Y111042D01*
X44906Y110874D01*
X44820Y110708D01*
X44730Y110544D01*
X44636Y110383D01*
X44538Y110223D01*
X44436Y110067D01*
X44330Y109912D01*
X44220Y109761D01*
X44107Y109612D01*
X43990Y109466D01*
X43870Y109323D01*
X43746Y109183D01*
X43619Y109046D01*
X43488Y108912D01*
X43354Y108781D01*
X43217Y108654D01*
X43077Y108530D01*
X42934Y108410D01*
X42788Y108293D01*
X42639Y108180D01*
X42488Y108070D01*
X42333Y107964D01*
X42177Y107862D01*
X42017Y107764D01*
X41856Y107670D01*
X41692Y107580D01*
X41526Y107494D01*
X41358Y107412D01*
X41188Y107334D01*
X41016Y107260D01*
X40842Y107191D01*
X40667Y107125D01*
X40490Y107065D01*
X40312Y107008D01*
X40132Y106956D01*
X39952Y106908D01*
X39770Y106865D01*
X39587Y106826D01*
X39403Y106792D01*
X39218Y106762D01*
X39033Y106737D01*
X38847Y106717D01*
X38661Y106701D01*
X38474Y106689D01*
X38287Y106682D01*
X38100Y106680D01*
X37913Y106682D01*
X37726Y106689D01*
X37539Y106701D01*
X37353Y106717D01*
X37167Y106737D01*
X36982Y106762D01*
X36797Y106792D01*
X36613Y106826D01*
X36430Y106865D01*
X36248Y106908D01*
X36068Y106956D01*
X35888Y107008D01*
X35710Y107065D01*
X35533Y107125D01*
X35358Y107191D01*
X35184Y107260D01*
X35012Y107334D01*
X34842Y107412D01*
X34674Y107494D01*
X34508Y107580D01*
X34344Y107670D01*
X34183Y107764D01*
X34023Y107862D01*
X33867Y107964D01*
X33712Y108070D01*
X33561Y108180D01*
X33412Y108293D01*
X33266Y108410D01*
X33123Y108530D01*
X32983Y108654D01*
X32846Y108781D01*
X32712Y108912D01*
X32581Y109046D01*
X32454Y109183D01*
X32330Y109323D01*
X32210Y109466D01*
X32093Y109612D01*
X31980Y109761D01*
X31870Y109912D01*
X31764Y110067D01*
X31662Y110223D01*
X31564Y110383D01*
X31470Y110544D01*
X31380Y110708D01*
X31294Y110874D01*
X31212Y111042D01*
X31134Y111212D01*
X31060Y111384D01*
X30991Y111558D01*
X30925Y111733D01*
X30865Y111910D01*
X30808Y112088D01*
X30756Y112268D01*
X30708Y112448D01*
X30665Y112630D01*
X30626Y112813D01*
X30592Y112997D01*
X30562Y113182D01*
X30537Y113367D01*
X30517Y113553D01*
X30501Y113739D01*
X30489Y113926D01*
X30482Y114113D01*
X30480Y114300D01*
D12*
X38100Y114300D03*
M02*
