M48
;GenerationSoftware,Autodesk,EAGLE,9.6.2*%
;CreationDate,2025-12-17T23:50:41Z*%
FMAT,2
ICI,OFF
METRIC,TZ,000.000
T9C0.305
T8C0.750
T7C0.889
T6C0.920
T5C1.000
T4C1.100
T3C1.320
T2C2.300
T1C3.175
%
G90
M71
T1
X66040Y3810
X66040Y49530
X3810Y49530
X3810Y3810
T2
X46250Y42080
X33110Y42080
T3
X25400Y11684
X22860Y11684
X20320Y11684
X17780Y11684
X15240Y11684
X12700Y11684
X10160Y11684
X10160Y26924
X12700Y26924
X15240Y26924
X17780Y26924
X27940Y11684
X22860Y26924
X25400Y26924
X27940Y26924
X20320Y26924
T4
X11430Y44450
X16510Y44450
X21590Y44450
X26670Y44450
T5
X53720Y41910
X58420Y38910
X58420Y44910
T6
X43180Y39370
X40680Y39370
X38680Y39370
X36180Y39370
T7
X41080Y33300
X20760Y30760
X36000Y5360
X36000Y7900
X13140Y5360
X13140Y7900
X15680Y5360
X15680Y7900
X18220Y5360
X18220Y7900
X20760Y5360
X20760Y7900
X23300Y5360
X23300Y7900
X25840Y5360
X25840Y7900
X28380Y5360
X28380Y7900
X30920Y5360
X30920Y7900
X56320Y33300
X56320Y30760
X53780Y33300
X53780Y30760
X51240Y33300
X51240Y30760
X48700Y33300
X48700Y30760
X46160Y33300
X46160Y30760
X43620Y33300
X43620Y30760
X33460Y5360
X41080Y30760
X38540Y33300
X38540Y30760
X36000Y33300
X36000Y30760
X33460Y33300
X33460Y30760
X30920Y33300
X30920Y30760
X28380Y33300
X28380Y30760
X25840Y33300
X25840Y30760
X23300Y33300
X23300Y30760
X20760Y33300
X33460Y7900
X18220Y33300
X18220Y30760
X15680Y33300
X15680Y30760
X13140Y33300
X13140Y30760
X56320Y7900
X56320Y5360
X53780Y7900
X53780Y5360
X51240Y7900
X51240Y5360
X48700Y7900
X48700Y5360
X46160Y7900
X46160Y5360
X43620Y7900
X43620Y5360
X41080Y7900
X41080Y5360
X38540Y7900
X38540Y5360
T8
X60920Y25400
X55920Y25400
T9
X53848Y18542
X50800Y19812
X30226Y11684
X31750Y10160
X52578Y27178
X39370Y25908
X63500Y24130
X29210Y39370
X34290Y36830
X15240Y25146
X53848Y23114
X54356Y25146
X41148Y21590
X42926Y24130
X50800Y25400
X46228Y37592
X57912Y33274
X58420Y36830
X11176Y24384
X63246Y25400
X29972Y26924
X50800Y45720
X50800Y43180
X49530Y41910
M30